<?xml version="1.0" encoding="UTF-8" standalone="no"?>
<!-- Created with Inkscape (http://www.inkscape.org/) -->

<svg
   xmlns:dc="http://purl.org/dc/elements/1.1/"
   xmlns:cc="http://creativecommons.org/ns#"
   xmlns:rdf="http://www.w3.org/1999/02/22-rdf-syntax-ns#"
   xmlns:svg="http://www.w3.org/2000/svg"
   xmlns="http://www.w3.org/2000/svg"
   version="1.1"
   width="166.09"
   height="72.360001"
   id="svg3433">
  <defs
     id="defs3435" />
  <metadata
     id="metadata3438">
    <rdf:RDF>
      <cc:Work
         rdf:about="">
        <dc:format>image/svg+xml</dc:format>
        <dc:type
           rdf:resource="http://purl.org/dc/dcmitype/StillImage" />
        <dc:title></dc:title>
      </cc:Work>
    </rdf:RDF>
  </metadata>
  <g
     transform="translate(0,-980.00218)"
     id="layer1">
    <path
       d="m 9.5346637,1002.2852 c 0,7.1836 3.6039893,12.0277 12.0534353,16.2014 l 11.826932,5.7964 c 3.337345,1.6287 6.336369,3.4783 6.336369,8.1051 0,4.7475 -3.856297,8.0599 -9.381266,8.0599 -5.536438,0 -9.114622,-3.5963 -9.114622,-9.1659 l 0.04886,-1.8737 -0.17478,0 -19.9982667,0 -0.01835,0.1644 c -0.126154,1.233 -0.126154,2.4447 -0.126154,3.5117 0,6.4672 2.1933584,11.0455 6.706229,13.9951 4.5816817,2.9978 11.6577707,4.4516 21.6267987,4.4516 19.467848,0 31.088346,-8.6492 31.088346,-23.1401 0,-6.8058 -3.560983,-11.9252 -10.591198,-15.2253 l -12.21973,-5.6573 c -4.828254,-2.2425 -7.279654,-5.1557 -7.279654,-8.66737 0,-4.07665 3.245597,-6.81779 8.065251,-6.81779 5.037555,0 7.807207,2.81053 7.807207,7.92391 l -0.04014,1.18465 0.180517,0 19.674279,0 0.0092,-0.1669 c 0.09174,-1.18155 0.177762,-2.33302 0.177762,-3.36948 0,-13.76253 -14.051827,-16.65164 -25.832887,-16.65164 -19.880713,0 -30.8245674,7.57937 -30.8245674,21.34482"
       id="path354"
       style="fill:#0d4ba0;fill-opacity:1;fill-rule:evenodd;stroke:none" />
    <path
       d="m 81.594368,980.94029 c -8.042314,0 -14.625256,1.24196 -19.605469,3.6294 3.956646,3.13691 6.032452,7.56438 6.032452,13.02224 0,1.10899 -0.08602,2.30282 -0.189231,3.52667 l -0.143357,1.9313 -16.904628,0 c 0.252308,6.7724 3.893569,11.4142 12.041968,15.4367 l 11.824065,5.7964 c 3.337345,1.6287 6.339235,3.4783 6.339235,8.1051 0,4.7475 -3.856296,8.0599 -9.375532,8.0599 -5.545039,0 -9.123224,-3.5963 -9.123224,-9.1659 l 0.05161,-1.8737 -0.177762,0 -0.151844,0 c -0.263776,7.3042 -3.35168,13.3605 -8.991335,17.5552 -0.645105,0.4805 -1.330351,0.9307 -2.041401,1.3599 4.538676,2.1517 10.909449,3.2065 19.378966,3.2065 19.467848,0 31.088339,-8.6491 31.088339,-23.1401 0,-6.8058 -3.563842,-11.9251 -10.594058,-15.2252 l -12.216861,-5.6574 c -4.82539,-2.2425 -7.282523,-5.1556 -7.282523,-8.66737 0,-4.07667 3.248463,-6.8178 8.070984,-6.8178 5.028955,0 7.801475,2.81052 7.801475,7.92392 l -0.04014,1.18465 0.177763,0 19.67716,0 0.0115,-0.1668 c 0.0918,-1.18155 0.17478,-2.33313 0.17478,-3.36958 0,-13.76254 -14.046098,-16.65165 -25.83289,-16.65165"
       id="path358"
       style="fill:#0d4ba0;fill-opacity:1;fill-rule:evenodd;stroke:none" />
    <path
       d="m 129.81672,1049.5657 22.87973,-0.1547 10.78903,-39.1754 1.36476,-5.3339 c 0.62503,-2.351 0.90601,-4.6055 0.90601,-7.30735 0,-10.29633 -6.83811,-16.69395 -17.85365,-16.69395 -8.89098,0 -19.01197,4.17941 -26.24575,13.78067 0,-0.39892 3.23413,-12.12168 3.23413,-12.12168 l -22.49555,0 -0.16629,0.92477 -0.0115,0.0556 c 4.76518,3.2005 7.26819,8.0056 7.26819,14.05265 0,1.11818 -0.086,2.31494 -0.18051,3.54199 l -0.16355,2.1548 -11.847,0 c -0.719651,2.626 -1.605595,5.887 -2.577554,9.4288 5.889104,3.6718 8.985604,9.0329 8.985604,15.6665 0,7.8394 -3.15099,14.3306 -9.111758,18.7671 -1.083778,0.8067 -2.259303,1.5442 -3.520842,2.2061 l 16.51183,0 9.60204,-35.1287 c 2.49727,-9.299 6.71769,-19.96691 17.1856,-19.96691 4.21182,0 7.50617,2.97977 7.50617,6.78471 0,1.9281 -0.18923,4.9018 -1.10098,8.0931 l 0.0516,-0.034 -0.22364,0.6616 -8.6444,31.6262 -1.27875,4.6541 -0.0229,0.034 -0.002,0.065 -0.21217,0.7705"
       id="path362"
       style="fill:#0d4ba0;fill-opacity:1;fill-rule:evenodd;stroke:none" />
  </g>
</svg>
