<svg width="411" height="85" viewBox="0 0 411 85" fill="none" xmlns="http://www.w3.org/2000/svg">
<path fill-rule="evenodd" clip-rule="evenodd" d="M8.50002 28.3978C8.50002 35.5978 12.1 40.3978 20.6 44.5978L32.4 50.3978C35.7 51.9978 38.7 53.8978 38.7 58.4978C38.7 63.1978 34.8 66.5978 29.3 66.5978C23.8 66.5978 20.2 62.9978 20.2 57.3978V55.4978H20H2.44156e-05V55.6978C-0.0999756 56.8978 -0.0999756 58.0978 -0.0999756 59.1978C-0.0999756 65.6978 2.10002 70.1978 6.60002 73.1978C11.2 76.1978 18.3 77.6978 28.2 77.6978C47.7 77.6978 59.3 69.0978 59.3 54.5978C59.3 47.7978 55.7 42.6978 48.7 39.3978L36.5 33.6978C31.7 31.4978 29.2 28.4978 29.2 24.9978C29.2 20.8978 32.4 18.1978 37.3 18.1978C42.3 18.1978 45.1 20.9978 45.1 26.0978V27.2978H45.3H65V27.0978C65.1 25.8978 65.2 24.7978 65.2 23.6978C65.2 9.89781 51.1 6.9978 39.4 6.9978C19.5 7.0978 8.50002 14.5978 8.50002 28.3978Z" fill="white"/>
<path fill-rule="evenodd" clip-rule="evenodd" d="M80.6 6.9978C72.6 6.9978 66 8.19778 61 10.5978C65 13.6978 67 18.1978 67 23.5978C67 24.6978 66.9001 25.8978 66.8001 27.0978L66.7 28.9978H49.8C50.1 35.7978 53.7 40.3978 61.8 44.3978L73.6 50.1978C76.9 51.7978 79.9001 53.6979 79.9001 58.2979C79.9001 62.9979 76 66.3978 70.5 66.3978C65 66.3978 61.4001 62.7978 61.4001 57.1978L61.5 55.2979H61.3H61.1C60.8 62.5979 57.7 68.6978 52.1 72.8978C51.5 73.3978 50.8 73.7979 50.1 74.2979C54.6 76.4979 61 77.4978 69.5 77.4978C89 77.4978 100.6 68.8978 100.6 54.3978C100.6 47.5978 97 42.4978 90 39.1978L77.8001 33.4978C73.0001 31.2978 70.5 28.2978 70.5 24.7978C70.5 20.6978 73.7 17.9978 78.6 17.9978C83.6 17.9978 86.4001 20.7978 86.4001 25.8978V27.0978H86.6H106.3V26.8978C106.4 25.6978 106.5 24.5978 106.5 23.4978C106.4 9.8978 92.4 7.0978 80.6 6.9978Z" fill="white"/>
<path fill-rule="evenodd" clip-rule="evenodd" d="M128.8 75.6978L151.7 75.4978L162.5 36.2978L163.9 30.9978C164.5 28.5978 164.8 26.3978 164.8 23.6978C164.8 13.3978 158 6.9978 146.9 6.9978C138 6.9978 127.9 11.1978 120.7 20.7978C120.7 20.3978 123.9 8.69781 123.9 8.69781H101.4L101.2 9.59778V9.69781C106 12.8978 108.5 17.6978 108.5 23.7978C108.5 24.8978 108.4 26.0978 108.3 27.2978L108.1 29.4978H96.3C95.6 32.0978 94.7 35.3978 93.7 38.8978C99.6 42.5978 102.7 47.8978 102.7 54.5978C102.7 62.3978 99.5 68.8978 93.6 73.3978C92.5 74.1978 91.3 74.8978 90.1 75.5978H106.6L116.2 40.4978C118.7 31.1978 122.9 20.4978 133.4 20.4978C137.6 20.4978 140.9 23.4978 140.9 27.2978C140.9 29.1978 140.7 32.1978 139.8 35.3978H139.9L139.7 36.0978L131.1 67.6978L129.8 72.3978V72.4978L129.6 73.2979" fill="white"/>
<path d="M189.484 0.0384471L167.082 84.0012L169.497 84.6457L191.9 0.682947L189.484 0.0384471Z" fill="white"/>
<path d="M203.3 29.9001L208.9 3.6001H214.4L208.8 29.9001H203.3Z" fill="white"/>
<path d="M214.8 29.9L219 9.8H223.1L222.7 13.5H222.9C223.4 12.7 224 12 224.6 11.4C225.2 10.8 225.9 10.3 226.7 10C227.5 9.6 228.3 9.5 229.2 9.5C230.4 9.5 231.3 9.7 232.1 10.2C232.9 10.7 233.5 11.3 233.8 12.2C234.1 13.1 234.4 14.1 234.4 15.3C234.4 15.7 234.4 16.2 234.3 16.8C234.2 17.4 234.1 17.9 234 18.5L231.6 30H226.2L228.7 18.3C228.8 17.9 228.9 17.5 228.9 17.1C228.9 16.7 229 16.4 229 16.1C229 15.3 228.8 14.8 228.5 14.4C228.2 14 227.7 13.9 227 13.9C226.2 13.9 225.4 14.3 224.8 15C224.1 15.7 223.6 16.6 223.1 17.8C222.6 19 222.2 20.3 221.9 21.7L220.1 30H214.8V29.9Z" fill="white"/>
<path d="M235.6 38.7001C235 38.7001 234.5 38.7 233.9 38.6C233.3 38.5 232.9 38.4 232.5 38.3V33.9001C232.9 34.0001 233.2 34.1001 233.6 34.2001C233.9 34.3001 234.3 34.3 234.6 34.3C235.3 34.3 236 34.1 236.5 33.6C237.1 33.1 237.4 32.3 237.7 31.3L241.4 13.9H238.5L239 11.3L242.3 9.80005L242.6 8.30005C242.9 7.10005 243.2 6.00005 243.7 5.20005C244.1 4.40005 244.7 3.70005 245.3 3.20005C245.9 2.70005 246.6 2.30005 247.4 2.10005C248.2 1.90005 249.1 1.80005 250.1 1.80005C250.9 1.80005 251.7 1.90005 252.4 2.00005C253.1 2.10005 253.7 2.40005 254.3 2.60005L252.9 6.60005C252.6 6.40005 252.2 6.30005 251.8 6.20005C251.4 6.10005 251 6.00005 250.5 6.00005C249.8 6.00005 249.3 6.20005 248.8 6.70005C248.3 7.20005 248.1 7.80005 248 8.60005L247.8 9.70005H251.7L250.8 13.8H246.8L242.9 32C242.6 33.2 242.2 34.3001 241.7 35.4001C241.2 36.5001 240.4 37.2 239.4 37.8C238.3 38.4 237.1 38.7001 235.6 38.7001Z" fill="white"/>
<path d="M259.4 30.2001C257.9 30.2001 256.6 29.9 255.4 29.3C254.2 28.7 253.3 27.8 252.7 26.6C252 25.4 251.7 24.1 251.7 22.5C251.7 21.1 251.8 19.7 252.1 18.4C252.4 17.1 252.8 15.9 253.4 14.8C254 13.7 254.7 12.7 255.5 11.9C256.3 11.1 257.4 10.5 258.5 10C259.6 9.50005 260.9 9.30005 262.3 9.30005C263.9 9.30005 265.2 9.60005 266.3 10.2C267.4 10.8 268.3 11.7 268.9 12.9C269.5 14.1 269.8 15.5 269.8 17.2C269.8 18.6 269.7 19.9 269.4 21.1C269.1 22.4 268.7 23.5 268.2 24.6C267.6 25.7 267 26.6 266.1 27.4C265.3 28.2 264.3 28.8 263.1 29.3C262.2 30 260.9 30.2001 259.4 30.2001ZM259.9 25.8C260.5 25.8 261 25.6 261.5 25.3C262 25 262.4 24.6 262.8 24C263.2 23.4 263.5 22.8 263.8 22.1C264.1 21.4 264.3 20.6 264.4 19.8C264.5 19 264.6 18.1 264.6 17.3C264.6 16.6 264.5 16 264.4 15.5C264.2 15 264 14.5 263.6 14.2C263.2 13.9 262.7 13.7 262.1 13.7C261.4 13.7 260.9 13.9 260.3 14.2C259.8 14.6 259.3 15.1 258.9 15.7C258.5 16.3 258.2 17 257.9 17.8C257.6 18.6 257.5 19.3 257.3 20.1C257.2 20.9 257.1 21.7 257.1 22.4C257.1 23.5 257.3 24.3 257.8 24.9C258.3 25.6 259 25.8 259.9 25.8Z" fill="white"/>
<path d="M272.3 29.9L276.6 9.80002H280.7L280.3 13.5H280.5C281 12.6 281.6 11.9 282.3 11.3C282.9 10.7 283.6 10.2 284.4 9.90002C285.1 9.60002 286 9.40002 286.8 9.40002C287.1 9.40002 287.4 9.40002 287.7 9.50002C288 9.60002 288.3 9.60003 288.5 9.60003L287.3 14.8C287.1 14.7 286.9 14.7 286.5 14.6C286.2 14.5 285.8 14.5 285.5 14.5C284.8 14.5 284.2 14.6 283.6 14.9C283 15.2 282.4 15.6 281.9 16.1C281.4 16.6 280.9 17.3 280.5 18.1C280.1 18.9 279.8 19.8 279.6 20.9L277.7 29.9H272.3Z" fill="white"/>
<path d="M287.8 29.9L292.1 9.8H296.2L295.8 13.5H296C296.5 12.7 297.1 12 297.7 11.4C298.3 10.8 299 10.3 299.8 10C300.6 9.6 301.4 9.5 302.3 9.5C303.7 9.5 304.7 9.9 305.5 10.6C306.3 11.3 306.8 12.3 307 13.6H307.1C307.6 12.8 308.2 12.1 308.8 11.5C309.4 10.9 310.1 10.4 310.9 10.1C311.7 9.7 312.5 9.6 313.5 9.6C315.2 9.6 316.4 10.1 317.3 11.2C318.1 12.2 318.5 13.7 318.5 15.4C318.5 15.8 318.5 16.3 318.4 16.9C318.3 17.5 318.2 18 318.1 18.6L315.7 30.1H310.3L312.8 18.4C312.9 18 313 17.6 313 17.2C313 16.8 313.1 16.5 313.1 16.2C313.1 15.4 313 14.9 312.7 14.5C312.4 14.1 312 14 311.4 14C310.8 14 310.2 14.2 309.7 14.6C309.2 15 308.7 15.5 308.3 16.3C307.9 17.1 307.5 17.8 307.2 18.8C306.9 19.7 306.6 20.7 306.4 21.8L304.7 30.2H299.3L301.8 18.5C301.9 18.1 302 17.7 302 17.3C302 16.9 302.1 16.6 302.1 16.3C302.1 15.5 302 15 301.7 14.6C301.4 14.2 301 14.1 300.4 14.1C299.8 14.1 299.2 14.3 298.7 14.7C298.2 15.1 297.7 15.7 297.3 16.4C296.9 17.1 296.5 17.9 296.2 18.9C295.9 19.8 295.6 20.8 295.4 21.9L293.6 30.2H287.8V29.9Z" fill="white"/>
<path d="M327.8 30.2C326.8 30.2 325.9 30 325 29.5C324.1 29 323.4 28.2 322.9 27.2C322.4 26.1 322.1 24.7 322.1 23C322.1 21.7 322.2 20.4 322.5 19.1C322.8 17.8 323.2 16.6 323.7 15.4C324.2 14.2 324.9 13.2 325.6 12.3C326.4 11.4 327.2 10.7 328.2 10.2C329.2 9.70002 330.2 9.40002 331.3 9.40002C332.2 9.40002 332.9 9.50002 333.5 9.80002C334.1 10 334.7 10.4 335.1 10.8C335.6 11.2 335.9 11.8 336.2 12.3H336.3L337.3 9.70002H341.5L337.2 29.8H333.2L333.5 27.2H333.4C332.9 27.8 332.4 28.3 331.8 28.7C331.2 29.1 330.6 29.5 329.9 29.7C329.4 30.1 328.7 30.2 327.8 30.2ZM329.9 25.9C330.6 25.9 331.3 25.6 332 25C332.6 24.4 333.2 23.7 333.6 22.7C334.1 21.8 334.4 20.8 334.6 19.7C334.7 19.2 334.8 18.7 334.8 18.3C334.8 17.9 334.9 17.3 334.9 16.7C334.9 15.8 334.7 15.1 334.2 14.6C333.7 14 333.1 13.8 332.4 13.8C331.9 13.8 331.4 14 330.9 14.3C330.4 14.6 330 15.1 329.6 15.7C329.2 16.3 328.9 17 328.6 17.7C328.3 18.5 328.1 19.3 327.9 20.1C327.7 21 327.7 21.8 327.7 22.7C327.7 23.7 327.9 24.5 328.3 25.1C328.6 25.6 329.2 25.9 329.9 25.9Z" fill="white"/>
<path d="M349.8 30.2001C348.2 30.2001 346.9 29.9001 346 29.2001C345.1 28.5001 344.6 27.3001 344.6 25.6001C344.6 25.3001 344.6 25.0001 344.7 24.7001C344.8 24.4001 344.8 24.0001 344.9 23.6001L347 13.9001H344.3L344.8 11.3001L348.3 9.8001L350.7 5.6001H354.2L353.3 9.9001H358.4L357.5 14.0001H352.4L350.3 23.7001C350.3 23.9001 350.2 24.1001 350.2 24.2001C350.2 24.4001 350.2 24.5001 350.2 24.6001C350.2 25.1001 350.3 25.4001 350.6 25.6001C350.9 25.8001 351.3 25.9001 351.8 25.9001C352.3 25.9001 352.8 25.8001 353.2 25.7001C353.6 25.6001 354.2 25.4001 354.7 25.2001V29.2001C354.1 29.5001 353.4 29.7001 352.6 29.9001C351.8 30.1001 350.8 30.2001 349.8 30.2001Z" fill="white"/>
<path d="M358.2 29.9L362.5 9.80002H367.9L363.6 29.9H358.2ZM366 7.30002C365.2 7.30002 364.6 7.10002 364.1 6.80002C363.6 6.50002 363.3 5.90002 363.3 5.10002C363.3 4.40002 363.4 3.80002 363.7 3.40002C364 3.00002 364.3 2.60002 364.8 2.30002C365.3 2.10002 365.9 1.90002 366.6 1.90002C367.3 1.90002 367.9 2.10002 368.5 2.40002C369 2.70002 369.3 3.30002 369.3 4.10002C369.3 5.10002 369 5.80002 368.5 6.40002C367.9 7.00002 367.1 7.30002 366 7.30002Z" fill="white"/>
<path d="M377.8 30.2001C376.3 30.2001 375 29.9 373.8 29.3C372.6 28.7 371.7 27.8 371.1 26.6C370.4 25.4 370.1 24.1 370.1 22.5C370.1 21.1 370.2 19.7 370.5 18.4C370.8 17.1 371.2 15.9 371.8 14.8C372.4 13.7 373.1 12.7 373.9 11.9C374.7 11.1 375.8 10.5 376.9 10C378 9.50005 379.3 9.30005 380.7 9.30005C382.3 9.30005 383.6 9.60005 384.7 10.2C385.8 10.8 386.7 11.7 387.3 12.9C387.9 14.1 388.2 15.5 388.2 17.2C388.2 18.6 388.1 19.9 387.8 21.1C387.5 22.4 387.1 23.5 386.6 24.6C386 25.7 385.4 26.6 384.5 27.4C383.7 28.2 382.7 28.8 381.5 29.3C380.5 30 379.2 30.2001 377.8 30.2001ZM378.2 25.8C378.8 25.8 379.3 25.6 379.8 25.3C380.3 25 380.7 24.6 381.1 24C381.5 23.4 381.8 22.8 382.1 22.1C382.4 21.4 382.6 20.6 382.7 19.8C382.8 19 382.9 18.1 382.9 17.3C382.9 16.6 382.8 16 382.7 15.5C382.5 15 382.3 14.5 381.9 14.2C381.5 13.9 381 13.7 380.4 13.7C379.7 13.7 379.2 13.9 378.6 14.2C378.1 14.6 377.6 15.1 377.2 15.7C376.8 16.3 376.5 17 376.2 17.8C375.9 18.6 375.8 19.3 375.6 20.1C375.5 20.9 375.4 21.7 375.4 22.4C375.4 23.5 375.6 24.3 376.1 24.9C376.6 25.6 377.3 25.8 378.2 25.8Z" fill="white"/>
<path d="M390.7 29.9L395 9.8H399.1L398.7 13.5H398.9C399.4 12.7 400 12 400.6 11.4C401.2 10.8 401.9 10.3 402.7 10C403.5 9.6 404.3 9.5 405.2 9.5C406.4 9.5 407.3 9.7 408.1 10.2C408.9 10.7 409.5 11.3 409.8 12.2C410.1 13.1 410.4 14.1 410.4 15.3C410.4 15.7 410.4 16.2 410.3 16.8C410.2 17.4 410.1 17.9 410 18.5L407.6 30H402.2L404.7 18.3C404.8 17.9 404.9 17.5 404.9 17.1C404.9 16.7 405 16.4 405 16.1C405 15.3 404.8 14.8 404.5 14.4C404.2 14 403.7 13.9 403 13.9C402.2 13.9 401.4 14.3 400.8 15C400.1 15.7 399.6 16.6 399.1 17.8C398.6 19 398.2 20.3 397.9 21.7L396.1 30H390.7V29.9Z" fill="white"/>
<path d="M207.1 74.1L211.7 52.4001H205.4L206.4 47.8H224.6L223.6 52.4001H217.3L212.7 74.1H207.1Z" fill="white"/>
<path d="M231.5 74.5001C229.9 74.5001 228.5 74.2001 227.4 73.6001C226.2 73.0001 225.3 72.2001 224.6 71.0001C223.9 69.8001 223.6 68.4001 223.6 66.7001C223.6 65.0001 223.8 63.4001 224.3 61.8001C224.8 60.2001 225.5 58.8001 226.4 57.6001C227.4 56.4001 228.5 55.4001 229.9 54.7001C231.3 54.0001 232.9 53.6001 234.7 53.6001C237 53.6001 238.6 54.1001 239.8 55.1001C241 56.1001 241.5 57.4001 241.5 59.0001C241.5 60.1001 241.3 61.0001 240.8 61.9001C240.3 62.8001 239.6 63.5001 238.7 64.1001C237.7 64.7001 236.5 65.2001 235.1 65.5001C233.6 65.8001 231.9 66.0001 230 66.0001H229C229 66.1001 229 66.3001 229 66.4001C229 66.5001 229 66.6001 229 66.8001C229 67.9001 229.3 68.7001 229.9 69.4001C230.5 70.0001 231.4 70.4001 232.5 70.4001C233.6 70.4001 234.5 70.3001 235.4 70.0001C236.3 69.8001 237.3 69.4001 238.5 68.8001V72.9001C237.4 73.4001 236.4 73.8001 235.3 74.1001C234.2 74.3001 232.9 74.5001 231.5 74.5001ZM229.6 62.5001H230.4C231.8 62.5001 232.9 62.4001 233.8 62.1001C234.7 61.8001 235.3 61.4001 235.7 60.9001C236.1 60.4001 236.3 59.9001 236.3 59.3001C236.3 58.7001 236.1 58.3001 235.8 58.0001C235.5 57.7001 235 57.6001 234.4 57.6001C233.7 57.6001 233.1 57.8001 232.4 58.2001C231.7 58.6001 231.2 59.2001 230.7 59.9001C230.2 60.6001 229.8 61.5001 229.6 62.5001Z" fill="white"/>
<path d="M251.5 74.5001C250.1 74.5001 248.8 74.3001 247.7 73.8001C246.6 73.3001 245.7 72.5001 245 71.4001C244.3 70.3001 244 68.9001 244 67.1001C244 65.6001 244.1 64.3001 244.4 62.9001C244.7 61.6001 245.1 60.3001 245.7 59.2001C246.3 58.1001 247 57.1001 247.9 56.3001C248.8 55.5001 249.8 54.8001 250.9 54.3001C252 53.8001 253.3 53.6001 254.6 53.6001C255.8 53.6001 256.9 53.7001 257.8 53.9001C258.8 54.1001 259.6 54.4001 260.5 54.9001L258.8 59.0001C258.2 58.7001 257.5 58.5001 256.9 58.3001C256.3 58.1001 255.6 58.0001 254.8 58.0001C253.9 58.0001 253.2 58.2001 252.5 58.7001C251.8 59.2001 251.3 59.9001 250.8 60.7001C250.3 61.5001 250 62.5001 249.7 63.5001C249.4 64.5001 249.3 65.6001 249.3 66.6001C249.3 67.4001 249.4 68.0001 249.7 68.5001C249.9 69.0001 250.3 69.4001 250.8 69.7001C251.3 70.0001 251.8 70.1001 252.5 70.1001C253.4 70.1001 254.3 70.0001 255 69.7001C255.8 69.4001 256.6 69.1001 257.4 68.6001V73.0001C256.6 73.4001 255.7 73.8001 254.7 74.0001C253.9 74.3001 252.8 74.5001 251.5 74.5001Z" fill="white"/>
<path d="M260.9 74.1001L266.8 46.1001H272.2L271.2 51.0001C271.1 51.6001 270.9 52.2001 270.8 52.9001C270.6 53.6001 270.4 54.3001 270.2 55.0001C270 55.7001 269.8 56.3001 269.6 56.8001H269.7C270.2 56.2001 270.7 55.7001 271.3 55.2001C271.9 54.7001 272.5 54.4001 273.2 54.1001C273.9 53.8001 274.6 53.7001 275.4 53.7001C276.6 53.7001 277.5 53.9001 278.3 54.4001C279.1 54.9001 279.7 55.5001 280 56.4001C280.3 57.3001 280.6 58.3001 280.6 59.5001C280.6 59.9001 280.6 60.4001 280.5 61.0001C280.4 61.6001 280.3 62.1001 280.2 62.7001L277.8 74.2001H272.4L274.9 62.5001C275 62.1001 275.1 61.7001 275.1 61.3001C275.1 60.9001 275.2 60.6001 275.2 60.3001C275.2 59.5001 275 59.0001 274.7 58.6001C274.4 58.2001 273.9 58.1001 273.2 58.1001C272.4 58.1001 271.6 58.5001 271 59.2001C270.3 59.9001 269.8 60.8001 269.3 62.0001C268.8 63.2001 268.4 64.5001 268.1 65.9001L266.3 74.2001H260.9V74.1001Z" fill="white"/>
<path d="M283.1 74.1001L287.4 54.0001H291.5L291.1 57.7001H291.3C291.8 56.9001 292.4 56.2001 293 55.6001C293.6 55.0001 294.3 54.5001 295.1 54.2001C295.9 53.8001 296.7 53.7001 297.6 53.7001C298.8 53.7001 299.7 53.9001 300.5 54.4001C301.3 54.9001 301.9 55.5001 302.2 56.4001C302.5 57.3001 302.8 58.3001 302.8 59.5001C302.8 59.9001 302.8 60.4001 302.7 61.0001C302.6 61.6001 302.5 62.1001 302.4 62.7001L300 74.1001H294.6L297.1 62.4001C297.2 62.0001 297.3 61.6001 297.3 61.2001C297.3 60.8001 297.4 60.5001 297.4 60.2001C297.4 59.4001 297.2 58.9001 296.9 58.5001C296.6 58.1001 296.1 58.0001 295.4 58.0001C294.6 58.0001 293.8 58.4001 293.2 59.1001C292.5 59.8001 292 60.7001 291.5 61.9001C291 63.1001 290.6 64.4001 290.3 65.8001L288.5 74.1001H283.1Z" fill="white"/>
<path d="M314 74.5001C312.5 74.5001 311.2 74.2001 310 73.6001C308.8 73.0001 307.9 72.1001 307.3 70.9001C306.6 69.7001 306.3 68.4001 306.3 66.8001C306.3 65.4001 306.4 64.0001 306.7 62.7001C307 61.4001 307.4 60.2001 308 59.1001C308.6 58.0001 309.3 57.0001 310.1 56.2001C310.9 55.4001 312 54.8001 313.1 54.3001C314.2 53.8001 315.5 53.6001 316.9 53.6001C318.5 53.6001 319.8 53.9001 320.9 54.5001C322 55.1001 322.9 56.0001 323.5 57.2001C324.1 58.4001 324.4 59.8001 324.4 61.5001C324.4 62.9001 324.3 64.2001 324 65.4001C323.7 66.7001 323.3 67.8001 322.8 68.9001C322.2 70.0001 321.6 70.9001 320.7 71.7001C319.9 72.5001 318.9 73.1001 317.7 73.6001C316.8 74.2001 315.5 74.5001 314 74.5001ZM314.5 70.0001C315.1 70.0001 315.6 69.8001 316.1 69.5001C316.6 69.2001 317 68.8001 317.4 68.2001C317.8 67.6001 318.1 67.0001 318.4 66.3001C318.7 65.6001 318.9 64.8001 319 64.0001C319.1 63.2001 319.2 62.3001 319.2 61.5001C319.2 60.8001 319.1 60.2001 319 59.7001C318.8 59.2001 318.6 58.7001 318.2 58.4001C317.8 58.1001 317.3 57.9001 316.7 57.9001C316 57.9001 315.5 58.1001 314.9 58.4001C314.4 58.8001 313.9 59.3001 313.5 59.9001C313.1 60.5001 312.8 61.2001 312.5 62.0001C312.2 62.8001 312.1 63.5001 311.9 64.3001C311.8 65.1001 311.7 65.9001 311.7 66.6001C311.7 67.7001 311.9 68.5001 312.4 69.1001C312.9 69.8001 313.6 70.0001 314.5 70.0001Z" fill="white"/>
<path d="M326.9 74.1001L332.8 46.1001H338.2L332.3 74.1001H326.9Z" fill="white"/>
<path d="M346.5 74.5001C345 74.5001 343.7 74.2001 342.5 73.6001C341.3 73.0001 340.4 72.1001 339.8 70.9001C339.1 69.7001 338.8 68.4001 338.8 66.8001C338.8 65.4001 338.9 64.0001 339.2 62.7001C339.5 61.4001 339.9 60.2001 340.5 59.1001C341.1 58.0001 341.8 57.0001 342.6 56.2001C343.4 55.4001 344.5 54.8001 345.6 54.3001C346.7 53.8001 348 53.6001 349.4 53.6001C351 53.6001 352.3 53.9001 353.4 54.5001C354.5 55.1001 355.4 56.0001 356 57.2001C356.6 58.4001 356.9 59.8001 356.9 61.5001C356.9 62.9001 356.8 64.2001 356.5 65.4001C356.2 66.7001 355.8 67.8001 355.3 68.9001C354.7 70.0001 354.1 70.9001 353.2 71.7001C352.4 72.5001 351.4 73.1001 350.2 73.6001C349.3 74.2001 348 74.5001 346.5 74.5001ZM347 70.0001C347.6 70.0001 348.1 69.8001 348.6 69.5001C349.1 69.2001 349.5 68.8001 349.9 68.2001C350.3 67.6001 350.6 67.0001 350.9 66.3001C351.2 65.6001 351.4 64.8001 351.5 64.0001C351.6 63.2001 351.7 62.3001 351.7 61.5001C351.7 60.8001 351.6 60.2001 351.5 59.7001C351.3 59.2001 351.1 58.7001 350.7 58.4001C350.3 58.1001 349.8 57.9001 349.2 57.9001C348.5 57.9001 348 58.1001 347.4 58.4001C346.9 58.8001 346.4 59.3001 346 59.9001C345.6 60.5001 345.3 61.2001 345 62.0001C344.7 62.8001 344.6 63.5001 344.4 64.3001C344.3 65.1001 344.2 65.9001 344.2 66.6001C344.2 67.7001 344.4 68.5001 344.9 69.1001C345.4 69.8001 346 70.0001 347 70.0001Z" fill="white"/>
<path d="M364.6 82.9C362.1 82.9 360.2 82.4 358.8 81.5C357.4 80.6 356.7 79.4 356.7 77.8C356.7 76.6 357.1 75.5 357.9 74.6C358.7 73.7 360 73 361.8 72.4C361.4 72.1 361 71.8 360.8 71.4C360.6 71 360.5 70.5 360.5 70C360.5 69.1 360.8 68.4 361.3 67.8C361.8 67.2 362.7 66.6 363.9 66C363.1 65.4 362.5 64.7 362.2 64C361.8 63.2 361.6 62.3 361.6 61.2C361.6 60 361.8 59 362.1 58.1C362.4 57.2 363 56.4 363.7 55.7C364.4 55 365.3 54.4 366.4 54C367.5 53.6 368.7 53.4 370 53.4C370.5 53.4 371 53.4 371.5 53.5C372 53.6 372.5 53.7 373 53.8H380.1L379.5 56.8L376.4 57.5C376.5 57.8 376.6 58.1 376.6 58.5C376.6 58.9 376.7 59.2 376.7 59.6C376.7 60.7 376.5 61.7 376.2 62.7C375.8 63.6 375.3 64.4 374.7 65.1C374 65.8 373.1 66.3 372.1 66.7C371.1 67.1 369.9 67.3 368.6 67.3C368.3 67.3 367.9 67.3 367.6 67.3C367.3 67.3 367 67.2 366.8 67.2C366.3 67.4 365.9 67.6 365.7 67.8C365.4 68 365.3 68.3 365.3 68.6C365.3 68.9 365.4 69.1 365.6 69.3C365.8 69.5 366 69.6 366.3 69.7C366.6 69.8 367 69.9 367.5 69.9L370 70.2C371.3 70.4 372.4 70.6 373.2 71C374 71.4 374.6 71.9 375 72.6C375.4 73.3 375.6 74.1 375.6 75C375.6 76.3 375.3 77.5 374.8 78.4C374.3 79.3 373.6 80.2 372.6 80.9C371.7 81.5 370.6 82 369.3 82.3C367.8 82.8 366.3 82.9 364.6 82.9ZM364.9 79.3C365.9 79.3 366.8 79.2 367.5 79C368.2 78.8 368.8 78.6 369.3 78.3C369.7 78 370 77.7 370.1 77.4C370.3 77.1 370.4 76.7 370.4 76.2C370.4 76 370.4 75.8 370.3 75.7C370.2 75.6 370.2 75.4 370.1 75.3C369.9 75.1 369.6 74.9 369.2 74.8C368.8 74.7 368.3 74.6 367.8 74.5L365.4 74.2C364.6 74.3 363.9 74.5 363.3 74.8C362.7 75.1 362.3 75.4 362 75.8C361.7 76.2 361.6 76.7 361.6 77.2C361.6 77.9 361.9 78.4 362.5 78.8C362.9 79.1 363.8 79.3 364.9 79.3ZM368.5 64C369.1 64 369.6 63.8 370.1 63.4C370.6 63 370.9 62.4 371.2 61.7C371.5 61 371.6 60.1 371.6 59.2C371.6 58.8 371.6 58.5 371.5 58.2C371.4 57.9 371.3 57.7 371.1 57.5C371 57.3 370.8 57.2 370.6 57.2C370.4 57.1 370.1 57.1 369.9 57.1C369.4 57.1 369 57.2 368.6 57.5C368.2 57.8 367.9 58.1 367.6 58.5C367.3 58.9 367.1 59.4 367 60C366.8 60.6 366.8 61.2 366.8 61.9C366.8 62.1 366.8 62.3 366.8 62.5C366.8 62.7 366.9 62.8 366.9 63C367.1 63.7 367.7 64 368.5 64Z" fill="white"/>
<path d="M378.8 82.9001C378.2 82.9001 377.6 82.9001 377.2 82.8001C376.8 82.7001 376.4 82.6001 376.1 82.6001V78.3001C376.4 78.4001 376.7 78.4001 377.1 78.5001C377.4 78.5001 377.8 78.6001 378.2 78.6001C379.3 78.6001 380.3 78.3001 381 77.6001C381.7 76.9001 382.4 76.1001 382.9 75.1001L383.4 74.2001L380.4 54.1001H385.7L386.7 63.4001C386.8 64.0001 386.8 64.5001 386.8 65.2001C386.8 65.8001 386.9 66.4001 386.9 67.1001C386.9 67.7001 386.9 68.3001 386.9 68.7001H387C387.2 68.3001 387.3 67.8001 387.5 67.3001C387.7 66.8001 387.9 66.2001 388.1 65.7001C388.3 65.1001 388.6 64.5001 388.9 63.8001L393.6 54.1001H399.5L387.3 77.1001C386.6 78.5001 385.8 79.6001 384.9 80.5001C384 81.4001 383 82.0001 382 82.5001C381.1 82.7001 380 82.9001 378.8 82.9001Z" fill="white"/>
</svg>
