<svg width="200" height="200" viewBox="0 0 200 200" fill="none" xmlns="http://www.w3.org/2000/svg">
<path fill-rule="evenodd" clip-rule="evenodd" d="M54.5035 60.3971C54.5035 64.8373 56.7236 67.7974 61.9654 70.3875L69.2424 73.9643C71.2775 74.951 73.1275 76.1227 73.1275 78.9595C73.1275 81.858 70.7225 83.9547 67.3307 83.9547C63.9389 83.9547 61.7188 81.7346 61.7188 78.2812V77.1094H61.5954H49.2616V77.2328C49.2 77.9728 49.2 78.7128 49.2 79.3912C49.2 83.3997 50.5567 86.1748 53.3318 88.0248C56.1686 89.8749 60.5471 90.7999 66.6523 90.7999C78.6778 90.7999 85.8314 85.4964 85.8314 76.5544C85.8314 72.3609 83.6113 69.2158 79.2945 67.1807L71.7708 63.6656C68.8107 62.3089 67.269 60.4588 67.269 58.3004C67.269 55.772 69.2424 54.1069 72.2642 54.1069C75.3476 54.1069 77.0744 55.8336 77.0744 58.9787V59.7188H77.1977H89.3465V59.5954C89.4082 58.8554 89.4698 58.1771 89.4698 57.4987C89.4698 48.9884 80.7745 47.2 73.5592 47.2C61.2871 47.2616 54.5035 51.8868 54.5035 60.3971Z" fill="white"/>
<path fill-rule="evenodd" clip-rule="evenodd" d="M98.9669 47.2C94.0333 47.2 89.9632 47.94 86.8797 49.42C89.3465 51.3318 90.5799 54.1069 90.5799 57.437C90.5799 58.1154 90.5182 58.8554 90.4565 59.5954L90.3948 60.7671H79.9728C80.1578 64.9606 82.3779 67.7974 87.3731 70.2642L94.65 73.841C96.6851 74.8277 98.5352 75.9994 98.5352 78.8362C98.5352 81.7347 96.1301 83.8314 92.7383 83.8314C89.3465 83.8314 87.1264 81.6113 87.1264 78.1578L87.1881 76.9861H87.0647H86.9414C86.7564 81.488 84.8446 85.2498 81.3912 87.8399C81.0212 88.1482 80.5895 88.3949 80.1578 88.7033C82.9329 90.06 86.8797 90.6766 92.1216 90.6766C104.147 90.6766 111.301 85.3731 111.301 76.4311C111.301 72.2376 109.081 69.0925 104.764 67.0574L97.2401 63.5423C94.28 62.1855 92.7383 60.3355 92.7383 58.177C92.7383 55.6486 94.7117 53.9835 97.7335 53.9835C100.817 53.9835 102.544 55.7103 102.544 58.8554V59.5954H102.667H114.816V59.4721C114.877 58.7321 114.939 58.0537 114.939 57.3753C114.877 48.9884 106.244 47.2616 98.9669 47.2Z" fill="white"/>
<path fill-rule="evenodd" clip-rule="evenodd" d="M128.691 89.5666L142.814 89.4433L149.474 65.269L150.337 62.0005C150.707 60.5205 150.892 59.1638 150.892 57.4987C150.892 51.1468 146.699 47.2 139.853 47.2C134.365 47.2 128.136 49.79 123.696 55.7103C123.696 55.4636 125.67 48.2483 125.67 48.2483H111.794L111.671 48.8033V48.865C114.631 50.8384 116.173 53.7985 116.173 57.5603C116.173 58.2387 116.111 58.9787 116.049 59.7188L115.926 61.0755H108.649C108.217 62.6789 107.662 64.714 107.046 66.8724C110.684 69.1542 112.596 72.4226 112.596 76.5544C112.596 81.3646 110.622 85.3731 106.984 88.1482C106.305 88.6416 105.565 89.0732 104.825 89.5049H115.001L120.921 67.8591C122.463 62.1239 125.053 55.5253 131.528 55.5253C134.118 55.5253 136.153 57.3753 136.153 59.7188C136.153 60.8905 136.03 62.7406 135.475 64.714H135.537L135.413 65.1456L130.11 84.633L129.308 87.5315V87.5932L129.185 88.0866" fill="white"/>
<path d="M43 116.689L46.3259 101.069H49.5925L46.2665 116.689H43Z" fill="white"/>
<path d="M49.8301 116.689L52.3245 104.751H54.7596L54.522 106.949H54.6408C54.9378 106.474 55.2941 106.058 55.6505 105.702C56.0068 105.345 56.4225 105.048 56.8977 104.87C57.3728 104.633 57.8479 104.573 58.3825 104.573C59.0952 104.573 59.6297 104.692 60.1048 104.989C60.58 105.286 60.9363 105.642 61.1145 106.177C61.2927 106.711 61.4708 107.305 61.4708 108.018C61.4708 108.255 61.4708 108.552 61.4114 108.909C61.352 109.265 61.2927 109.562 61.2333 109.918L59.8079 116.748H56.6007L58.0855 109.8C58.1449 109.562 58.2043 109.324 58.2043 109.087C58.2043 108.849 58.2637 108.671 58.2637 108.493C58.2637 108.018 58.1449 107.721 57.9667 107.483C57.7886 107.246 57.4916 107.186 57.0759 107.186C56.6007 107.186 56.1256 107.424 55.7692 107.84C55.3535 108.255 55.0565 108.79 54.7596 109.503C54.4626 110.215 54.2251 110.987 54.0469 111.819L52.9778 116.748H49.8301V116.689Z" fill="white"/>
<path d="M62.1834 121.916C61.8271 121.916 61.5301 121.916 61.1738 121.856C60.8174 121.797 60.5799 121.737 60.3423 121.678V119.065C60.5799 119.124 60.758 119.183 60.9956 119.243C61.1738 119.302 61.4113 119.302 61.5895 119.302C62.0053 119.302 62.421 119.183 62.7179 118.887C63.0743 118.59 63.2525 118.114 63.4306 117.521L65.6281 107.186H63.9058L64.2027 105.642L66.1627 104.751L66.3408 103.86C66.519 103.148 66.6972 102.494 66.9941 102.019C67.2317 101.544 67.5881 101.128 67.9444 100.831C68.3008 100.535 68.7165 100.297 69.1916 100.178C69.6668 100.059 70.2013 100 70.7952 100C71.2703 100 71.7455 100.059 72.1612 100.119C72.577 100.178 72.9333 100.356 73.2897 100.475L72.4582 102.851C72.28 102.732 72.0424 102.673 71.8049 102.613C71.5673 102.554 71.3297 102.494 71.0328 102.494C70.617 102.494 70.3201 102.613 70.0231 102.91C69.7262 103.207 69.6074 103.563 69.548 104.039L69.4292 104.692H71.7455L71.2109 107.127H68.8353L66.519 117.936C66.3408 118.649 66.1033 119.302 65.8063 119.956C65.5094 120.609 65.0342 121.025 64.4403 121.381C63.787 121.737 63.0743 121.916 62.1834 121.916Z" fill="white"/>
<path d="M76.3188 116.867C75.4279 116.867 74.6558 116.689 73.9431 116.333C73.2304 115.976 72.6959 115.442 72.3395 114.729C71.9238 114.016 71.7456 113.244 71.7456 112.294C71.7456 111.463 71.805 110.631 71.9832 109.859C72.1614 109.087 72.3989 108.374 72.7553 107.721C73.1116 107.068 73.5274 106.474 74.0025 105.999C74.4776 105.523 75.1309 105.167 75.7842 104.87C76.4375 104.573 77.2096 104.454 78.0411 104.454C78.9914 104.454 79.7635 104.633 80.4168 104.989C81.0701 105.345 81.6046 105.88 81.961 106.592C82.3173 107.305 82.4955 108.137 82.4955 109.146C82.4955 109.978 82.4361 110.75 82.2579 111.463C82.0797 112.235 81.8422 112.888 81.5452 113.541C81.1889 114.195 80.8325 114.729 80.298 115.204C79.8229 115.679 79.229 116.036 78.5163 116.333C77.9817 116.748 77.2096 116.867 76.3188 116.867ZM76.6157 114.254C76.9721 114.254 77.269 114.135 77.566 113.957C77.8629 113.779 78.1005 113.541 78.3381 113.185C78.5756 112.829 78.7538 112.472 78.932 112.056C79.1102 111.641 79.2289 111.166 79.2883 110.69C79.3477 110.215 79.4071 109.681 79.4071 109.206C79.4071 108.79 79.3477 108.434 79.2883 108.137C79.1696 107.84 79.0508 107.543 78.8132 107.365C78.5756 107.186 78.2787 107.068 77.9223 107.068C77.5066 107.068 77.2096 107.186 76.8533 107.365C76.5563 107.602 76.2594 107.899 76.0218 108.255C75.7842 108.612 75.6061 109.027 75.4279 109.503C75.2497 109.978 75.1903 110.394 75.0715 110.869C75.0121 111.344 74.9528 111.819 74.9528 112.235C74.9528 112.888 75.0715 113.363 75.3685 113.719C75.6654 114.135 76.0812 114.254 76.6157 114.254Z" fill="white"/>
<path d="M83.9802 116.689L86.5341 104.751H88.9691L88.7316 106.949H88.8503C89.1473 106.414 89.5036 105.999 89.9194 105.642C90.2757 105.286 90.6915 104.989 91.1666 104.811C91.5824 104.633 92.1169 104.514 92.592 104.514C92.7702 104.514 92.9484 104.514 93.1265 104.573C93.3047 104.633 93.4829 104.633 93.6017 104.633L92.889 107.721C92.7702 107.662 92.6514 107.662 92.4138 107.602C92.2357 107.543 91.9981 107.543 91.8199 107.543C91.4042 107.543 91.0478 107.602 90.6915 107.78C90.3351 107.959 89.9788 108.196 89.6818 108.493C89.3849 108.79 89.0879 109.206 88.8503 109.681C88.6128 110.156 88.4346 110.691 88.3158 111.344L87.1874 116.689H83.9802Z" fill="white"/>
<path d="M93.1859 116.689L95.7398 104.751H98.1748L97.9372 106.949H98.056C98.353 106.474 98.7093 106.058 99.0657 105.702C99.422 105.345 99.8378 105.048 100.313 104.87C100.788 104.633 101.263 104.573 101.798 104.573C102.629 104.573 103.223 104.811 103.698 105.226C104.173 105.642 104.47 106.236 104.589 107.008H104.649C104.945 106.533 105.302 106.117 105.658 105.761C106.014 105.405 106.43 105.108 106.905 104.929C107.381 104.692 107.856 104.633 108.45 104.633C109.459 104.633 110.172 104.929 110.706 105.583C111.182 106.177 111.419 107.068 111.419 108.077C111.419 108.315 111.419 108.612 111.36 108.968C111.3 109.324 111.241 109.621 111.182 109.978L109.756 116.808H106.549L108.034 109.859C108.093 109.621 108.153 109.384 108.153 109.146C108.153 108.909 108.212 108.731 108.212 108.552C108.212 108.077 108.153 107.78 107.974 107.543C107.796 107.305 107.559 107.246 107.202 107.246C106.846 107.246 106.49 107.365 106.193 107.602C105.896 107.84 105.599 108.137 105.361 108.612C105.124 109.087 104.886 109.503 104.708 110.097C104.53 110.631 104.352 111.225 104.233 111.878L103.223 116.867H100.016L101.501 109.918C101.56 109.681 101.62 109.443 101.62 109.206C101.62 108.968 101.679 108.79 101.679 108.612C101.679 108.137 101.62 107.84 101.441 107.602C101.263 107.365 101.026 107.305 100.669 107.305C100.313 107.305 99.9566 107.424 99.6596 107.661C99.3627 107.899 99.0657 108.255 98.8281 108.671C98.5905 109.087 98.353 109.562 98.1748 110.156C97.9966 110.69 97.8185 111.284 97.6997 111.938L96.6306 116.867H93.1859V116.689Z" fill="white"/>
<path d="M116.943 116.867C116.349 116.867 115.814 116.748 115.28 116.452C114.745 116.155 114.329 115.679 114.032 115.085C113.735 114.432 113.557 113.601 113.557 112.591C113.557 111.819 113.617 111.047 113.795 110.275C113.973 109.503 114.211 108.79 114.508 108.077C114.804 107.365 115.22 106.771 115.636 106.236C116.111 105.702 116.586 105.286 117.18 104.989C117.774 104.692 118.368 104.514 119.021 104.514C119.556 104.514 119.972 104.573 120.328 104.751C120.684 104.87 121.041 105.108 121.278 105.345C121.575 105.583 121.753 105.939 121.931 106.236H121.991L122.585 104.692H125.079L122.525 116.63H120.15L120.328 115.085H120.268C119.972 115.442 119.675 115.739 119.318 115.976C118.962 116.214 118.606 116.452 118.19 116.57C117.893 116.808 117.477 116.867 116.943 116.867ZM118.19 114.313C118.606 114.313 119.021 114.135 119.437 113.779C119.793 113.423 120.15 113.007 120.387 112.413C120.684 111.878 120.862 111.284 120.981 110.631C121.041 110.334 121.1 110.037 121.1 109.8C121.1 109.562 121.159 109.206 121.159 108.849C121.159 108.315 121.041 107.899 120.744 107.602C120.447 107.246 120.09 107.127 119.675 107.127C119.378 107.127 119.081 107.246 118.784 107.424C118.487 107.602 118.249 107.899 118.012 108.255C117.774 108.612 117.596 109.028 117.418 109.443C117.24 109.918 117.121 110.394 117.002 110.869C116.883 111.403 116.883 111.878 116.883 112.413C116.883 113.007 117.002 113.482 117.24 113.838C117.418 114.135 117.774 114.313 118.19 114.313Z" fill="white"/>
<path d="M130.009 116.867C129.058 116.867 128.286 116.689 127.752 116.273C127.217 115.858 126.92 115.145 126.92 114.135C126.92 113.957 126.92 113.779 126.98 113.601C127.039 113.423 127.039 113.185 127.099 112.947L128.346 107.186H126.742L127.039 105.642L129.118 104.751L130.543 102.257H132.622L132.087 104.811H135.116L134.582 107.246H131.553L130.306 113.007C130.306 113.126 130.246 113.244 130.246 113.304C130.246 113.423 130.246 113.482 130.246 113.541C130.246 113.838 130.306 114.016 130.484 114.135C130.662 114.254 130.9 114.313 131.197 114.313C131.494 114.313 131.79 114.254 132.028 114.195C132.266 114.135 132.622 114.016 132.919 113.898V116.273C132.563 116.452 132.147 116.57 131.672 116.689C131.197 116.808 130.603 116.867 130.009 116.867Z" fill="white"/>
<path d="M134.998 116.689L137.551 104.751H140.759L138.205 116.689H134.998ZM139.63 103.266C139.155 103.266 138.799 103.148 138.502 102.97C138.205 102.791 138.027 102.435 138.027 101.96C138.027 101.544 138.086 101.188 138.264 100.95C138.442 100.713 138.62 100.475 138.917 100.297C139.214 100.178 139.571 100.059 139.987 100.059C140.402 100.059 140.759 100.178 141.115 100.356C141.412 100.534 141.59 100.891 141.59 101.366C141.59 101.96 141.412 102.376 141.115 102.732C140.759 103.088 140.283 103.266 139.63 103.266Z" fill="white"/>
<path d="M146.638 116.867C145.747 116.867 144.975 116.689 144.263 116.333C143.55 115.976 143.015 115.442 142.659 114.729C142.243 114.016 142.065 113.244 142.065 112.294C142.065 111.463 142.125 110.631 142.303 109.859C142.481 109.087 142.718 108.374 143.075 107.721C143.431 107.068 143.847 106.474 144.322 105.999C144.797 105.523 145.45 105.167 146.104 104.87C146.757 104.573 147.529 104.454 148.361 104.454C149.311 104.454 150.083 104.633 150.736 104.989C151.39 105.345 151.924 105.88 152.281 106.592C152.637 107.305 152.815 108.137 152.815 109.146C152.815 109.978 152.756 110.75 152.577 111.463C152.399 112.235 152.162 112.888 151.865 113.541C151.508 114.195 151.152 114.729 150.618 115.204C150.142 115.679 149.549 116.036 148.836 116.333C148.242 116.748 147.47 116.867 146.638 116.867ZM146.876 114.254C147.232 114.254 147.529 114.135 147.826 113.957C148.123 113.779 148.361 113.541 148.598 113.185C148.836 112.829 149.014 112.472 149.192 112.056C149.37 111.641 149.489 111.166 149.549 110.69C149.608 110.215 149.667 109.681 149.667 109.206C149.667 108.79 149.608 108.434 149.549 108.137C149.43 107.84 149.311 107.543 149.073 107.365C148.836 107.186 148.539 107.068 148.183 107.068C147.767 107.068 147.47 107.186 147.113 107.365C146.817 107.602 146.52 107.899 146.282 108.255C146.044 108.612 145.866 109.027 145.688 109.503C145.51 109.978 145.451 110.394 145.332 110.869C145.272 111.344 145.213 111.819 145.213 112.235C145.213 112.888 145.332 113.363 145.629 113.719C145.926 114.135 146.341 114.254 146.876 114.254Z" fill="white"/>
<path d="M154.3 116.689L156.854 104.751H159.289L159.051 106.949H159.17C159.467 106.474 159.823 106.058 160.18 105.702C160.536 105.345 160.952 105.048 161.427 104.87C161.902 104.633 162.377 104.573 162.912 104.573C163.624 104.573 164.159 104.692 164.634 104.989C165.109 105.286 165.465 105.642 165.644 106.177C165.822 106.711 166 107.305 166 108.018C166 108.255 166 108.552 165.941 108.909C165.881 109.265 165.822 109.562 165.762 109.918L164.337 116.748H161.13L162.615 109.8C162.674 109.562 162.733 109.324 162.733 109.087C162.733 108.849 162.793 108.671 162.793 108.493C162.793 108.018 162.674 107.721 162.496 107.483C162.318 107.246 162.021 107.186 161.605 107.186C161.13 107.186 160.655 107.424 160.298 107.84C159.883 108.255 159.586 108.79 159.289 109.503C158.992 110.215 158.754 110.987 158.576 111.819L157.507 116.748H154.3V116.689Z" fill="white"/>
<path d="M45.2569 142.94L47.9889 130.052H44.2472L44.8411 127.32H55.6504L55.0565 130.052H51.3148L48.5828 142.94H45.2569Z" fill="white"/>
<path d="M59.7485 143.178C58.7982 143.178 57.9667 143 57.3134 142.643C56.6007 142.287 56.0662 141.812 55.6504 141.099C55.2347 140.386 55.0565 139.555 55.0565 138.545C55.0565 137.536 55.1753 136.585 55.4723 135.635C55.7692 134.685 56.185 133.853 56.7195 133.141C57.3134 132.428 57.9667 131.834 58.7982 131.418C59.6297 131.002 60.5799 130.765 61.649 130.765C63.015 130.765 63.9653 131.062 64.678 131.656C65.3907 132.25 65.6876 133.022 65.6876 133.972C65.6876 134.625 65.5688 135.16 65.2719 135.694C64.9749 136.229 64.5592 136.645 64.0246 137.001C63.4307 137.357 62.718 137.654 61.8866 137.832C60.9957 138.011 59.986 138.129 58.8576 138.129H58.2637C58.2637 138.189 58.2637 138.308 58.2637 138.367C58.2637 138.426 58.2637 138.486 58.2637 138.605C58.2637 139.258 58.4418 139.733 58.7982 140.149C59.1545 140.505 59.6891 140.743 60.3424 140.743C60.9957 140.743 61.5302 140.683 62.0647 140.505C62.5992 140.386 63.1932 140.149 63.9059 139.792V142.227C63.2526 142.524 62.6586 142.762 62.0053 142.94C61.352 143.059 60.5799 143.178 59.7485 143.178ZM58.62 136.051H59.0951C59.9266 136.051 60.5799 135.991 61.1145 135.813C61.649 135.635 62.0053 135.397 62.2429 135.1C62.4805 134.804 62.5992 134.507 62.5992 134.15C62.5992 133.794 62.4805 133.556 62.3023 133.378C62.1241 133.2 61.8272 133.141 61.4708 133.141C61.0551 133.141 60.6987 133.259 60.283 133.497C59.8672 133.734 59.5703 134.091 59.2733 134.507C58.9764 134.922 58.7388 135.457 58.62 136.051Z" fill="white"/>
<path d="M71.6267 143.178C70.7953 143.178 70.0232 143.059 69.3699 142.762C68.7165 142.465 68.182 141.99 67.7663 141.337C67.3505 140.683 67.1724 139.852 67.1724 138.783C67.1724 137.892 67.2318 137.12 67.4099 136.288C67.5881 135.516 67.8257 134.744 68.182 134.091C68.5384 133.438 68.9541 132.844 69.4886 132.368C70.0232 131.893 70.6171 131.478 71.2704 131.181C71.9237 130.884 72.6958 130.765 73.4679 130.765C74.1806 130.765 74.8339 130.824 75.3684 130.943C75.9623 131.062 76.4375 131.24 76.972 131.537L75.9623 133.972C75.606 133.794 75.1902 133.675 74.8339 133.556C74.4775 133.438 74.0618 133.378 73.5867 133.378C73.0521 133.378 72.6364 133.497 72.2206 133.794C71.8049 134.091 71.508 134.507 71.211 134.982C70.914 135.457 70.7359 136.051 70.5577 136.645C70.3795 137.239 70.3201 137.892 70.3201 138.486C70.3201 138.961 70.3795 139.317 70.5577 139.614C70.6765 139.911 70.914 140.149 71.211 140.327C71.508 140.505 71.8049 140.565 72.2206 140.565C72.7552 140.565 73.2897 140.505 73.7054 140.327C74.1806 140.149 74.6557 139.971 75.1308 139.674V142.287C74.6557 142.524 74.1212 142.762 73.5273 142.881C73.0521 143.059 72.3988 143.178 71.6267 143.178Z" fill="white"/>
<path d="M77.2096 142.94L80.7137 126.311H83.9209L83.3269 129.221C83.2675 129.577 83.1488 129.933 83.0894 130.349C82.9706 130.765 82.8518 131.181 82.733 131.596C82.6142 132.012 82.4955 132.368 82.3767 132.665H82.4361C82.733 132.309 83.03 132.012 83.3863 131.715C83.7427 131.418 84.099 131.24 84.5148 131.062C84.9305 130.884 85.3462 130.824 85.8214 130.824C86.5341 130.824 87.0686 130.943 87.5437 131.24C88.0189 131.537 88.3752 131.893 88.5534 132.428C88.7316 132.962 88.9097 133.556 88.9097 134.269C88.9097 134.507 88.9097 134.804 88.8504 135.16C88.791 135.516 88.7316 135.813 88.6722 136.17L87.2468 143H84.0396L85.5244 136.051C85.5838 135.813 85.6432 135.576 85.6432 135.338C85.6432 135.101 85.7026 134.922 85.7026 134.744C85.7026 134.269 85.5838 133.972 85.4056 133.734C85.2275 133.497 84.9305 133.438 84.5148 133.438C84.0396 133.438 83.5645 133.675 83.2081 134.091C82.7924 134.507 82.4954 135.041 82.1985 135.754C81.9015 136.467 81.664 137.239 81.4858 138.07L80.4167 143H77.2096V142.94Z" fill="white"/>
<path d="M90.3945 142.94L92.9484 131.002H95.3834L95.1459 133.2H95.2646C95.5616 132.725 95.9179 132.309 96.2743 131.953C96.6306 131.596 97.0464 131.299 97.5215 131.121C97.9967 130.884 98.4718 130.824 99.0063 130.824C99.719 130.824 100.254 130.943 100.729 131.24C101.204 131.537 101.56 131.893 101.738 132.428C101.917 132.962 102.095 133.556 102.095 134.269C102.095 134.506 102.095 134.803 102.035 135.16C101.976 135.516 101.916 135.813 101.857 136.169L100.432 142.94H97.2246L98.7094 135.991C98.7687 135.754 98.8281 135.516 98.8281 135.279C98.8281 135.041 98.8875 134.863 98.8875 134.685C98.8875 134.21 98.7687 133.913 98.5906 133.675C98.4124 133.437 98.1154 133.378 97.6997 133.378C97.2246 133.378 96.7494 133.616 96.3931 134.031C95.9773 134.447 95.6804 134.982 95.3834 135.694C95.0865 136.407 94.8489 137.179 94.6707 138.011L93.6017 142.94H90.3945Z" fill="white"/>
<path d="M108.747 143.178C107.856 143.178 107.084 143 106.371 142.643C105.658 142.287 105.124 141.752 104.767 141.04C104.352 140.327 104.173 139.555 104.173 138.605C104.173 137.773 104.233 136.942 104.411 136.17C104.589 135.397 104.827 134.685 105.183 134.031C105.539 133.378 105.955 132.784 106.43 132.309C106.905 131.834 107.559 131.478 108.212 131.181C108.865 130.884 109.637 130.765 110.469 130.765C111.419 130.765 112.191 130.943 112.845 131.299C113.498 131.656 114.032 132.19 114.389 132.903C114.745 133.616 114.923 134.447 114.923 135.457C114.923 136.288 114.864 137.06 114.686 137.773C114.507 138.545 114.27 139.199 113.973 139.852C113.617 140.505 113.26 141.04 112.726 141.515C112.251 141.99 111.657 142.346 110.944 142.643C110.409 143 109.637 143.178 108.747 143.178ZM109.043 140.505C109.4 140.505 109.697 140.386 109.994 140.208C110.291 140.03 110.528 139.792 110.766 139.436C111.003 139.08 111.182 138.723 111.36 138.308C111.538 137.892 111.657 137.417 111.716 136.942C111.775 136.466 111.835 135.932 111.835 135.457C111.835 135.041 111.775 134.685 111.716 134.388C111.597 134.091 111.479 133.794 111.241 133.616C111.003 133.438 110.706 133.319 110.35 133.319C109.934 133.319 109.637 133.438 109.281 133.616C108.984 133.853 108.687 134.15 108.45 134.507C108.212 134.863 108.034 135.279 107.856 135.754C107.677 136.229 107.618 136.645 107.499 137.12C107.44 137.595 107.381 138.07 107.381 138.486C107.381 139.139 107.499 139.614 107.796 139.971C108.093 140.386 108.509 140.505 109.043 140.505Z" fill="white"/>
<path d="M116.408 142.94L119.912 126.311H123.119L119.615 142.94H116.408Z" fill="white"/>
<path d="M128.049 143.178C127.158 143.178 126.386 143 125.673 142.643C124.96 142.287 124.426 141.752 124.07 141.04C123.654 140.327 123.476 139.555 123.476 138.605C123.476 137.773 123.535 136.942 123.713 136.17C123.891 135.397 124.129 134.685 124.485 134.031C124.842 133.378 125.257 132.784 125.732 132.309C126.208 131.834 126.861 131.478 127.514 131.181C128.168 130.884 128.94 130.765 129.771 130.765C130.721 130.765 131.493 130.943 132.147 131.299C132.8 131.656 133.335 132.19 133.691 132.903C134.047 133.616 134.225 134.447 134.225 135.457C134.225 136.288 134.166 137.06 133.988 137.773C133.81 138.545 133.572 139.199 133.275 139.852C132.919 140.505 132.563 141.04 132.028 141.515C131.553 141.99 130.959 142.346 130.246 142.643C129.712 143 128.94 143.178 128.049 143.178ZM128.346 140.505C128.702 140.505 128.999 140.386 129.296 140.208C129.593 140.03 129.83 139.792 130.068 139.436C130.306 139.08 130.484 138.723 130.662 138.308C130.84 137.892 130.959 137.417 131.018 136.942C131.078 136.466 131.137 135.932 131.137 135.457C131.137 135.041 131.078 134.685 131.018 134.388C130.9 134.091 130.781 133.794 130.543 133.616C130.306 133.438 130.009 133.319 129.652 133.319C129.237 133.319 128.94 133.438 128.583 133.616C128.286 133.853 127.989 134.15 127.752 134.507C127.514 134.863 127.336 135.279 127.158 135.754C126.98 136.229 126.92 136.645 126.802 137.12C126.742 137.595 126.683 138.07 126.683 138.486C126.683 139.139 126.802 139.614 127.098 139.971C127.395 140.386 127.752 140.505 128.346 140.505Z" fill="white"/>
<path d="M138.799 148.167C137.314 148.167 136.185 147.87 135.354 147.335C134.522 146.801 134.107 146.088 134.107 145.138C134.107 144.425 134.344 143.772 134.819 143.237C135.295 142.702 136.067 142.287 137.136 141.93C136.898 141.752 136.661 141.574 136.542 141.336C136.423 141.099 136.364 140.802 136.364 140.505C136.364 139.97 136.542 139.555 136.839 139.198C137.136 138.842 137.67 138.486 138.383 138.129C137.908 137.773 137.551 137.357 137.373 136.942C137.136 136.466 137.017 135.932 137.017 135.279C137.017 134.566 137.136 133.972 137.314 133.437C137.492 132.903 137.848 132.428 138.264 132.012C138.68 131.596 139.214 131.24 139.868 131.002C140.521 130.765 141.234 130.646 142.006 130.646C142.303 130.646 142.6 130.646 142.897 130.705C143.194 130.765 143.491 130.824 143.788 130.884H148.004L147.648 132.665L145.807 133.081C145.866 133.259 145.926 133.437 145.926 133.675C145.926 133.913 145.985 134.091 145.985 134.328C145.985 134.982 145.866 135.575 145.688 136.169C145.451 136.704 145.154 137.179 144.797 137.595C144.381 138.011 143.847 138.308 143.253 138.545C142.659 138.783 141.946 138.901 141.174 138.901C140.996 138.901 140.759 138.901 140.58 138.901C140.402 138.901 140.224 138.842 140.105 138.842C139.808 138.961 139.571 139.08 139.452 139.198C139.274 139.317 139.214 139.495 139.214 139.674C139.214 139.852 139.274 139.97 139.393 140.089C139.511 140.208 139.63 140.267 139.808 140.327C139.987 140.386 140.224 140.446 140.521 140.446L142.006 140.624C142.778 140.743 143.431 140.861 143.906 141.099C144.381 141.336 144.738 141.633 144.975 142.049C145.213 142.465 145.332 142.94 145.332 143.475C145.332 144.247 145.154 144.959 144.857 145.494C144.56 146.028 144.144 146.563 143.55 146.979C143.015 147.335 142.362 147.632 141.59 147.81C140.699 148.107 139.808 148.167 138.799 148.167ZM138.977 146.028C139.571 146.028 140.105 145.969 140.521 145.85C140.937 145.731 141.293 145.613 141.59 145.435C141.828 145.256 142.006 145.078 142.065 144.9C142.184 144.722 142.243 144.484 142.243 144.187C142.243 144.068 142.243 143.95 142.184 143.89C142.125 143.831 142.125 143.712 142.065 143.653C141.946 143.534 141.768 143.415 141.531 143.356C141.293 143.296 140.996 143.237 140.699 143.178L139.274 142.999C138.799 143.059 138.383 143.178 138.027 143.356C137.67 143.534 137.433 143.712 137.254 143.95C137.076 144.187 137.017 144.484 137.017 144.781C137.017 145.197 137.195 145.494 137.551 145.731C137.789 145.91 138.324 146.028 138.977 146.028ZM141.115 136.942C141.471 136.942 141.768 136.823 142.065 136.585C142.362 136.348 142.54 135.991 142.719 135.575C142.897 135.16 142.956 134.625 142.956 134.091C142.956 133.853 142.956 133.675 142.897 133.497C142.837 133.319 142.778 133.2 142.659 133.081C142.6 132.962 142.481 132.903 142.362 132.903C142.243 132.843 142.065 132.843 141.946 132.843C141.649 132.843 141.412 132.903 141.174 133.081C140.937 133.259 140.759 133.437 140.58 133.675C140.402 133.913 140.283 134.209 140.224 134.566C140.105 134.922 140.105 135.279 140.105 135.694C140.105 135.813 140.105 135.932 140.105 136.051C140.105 136.169 140.165 136.229 140.165 136.348C140.283 136.763 140.64 136.942 141.115 136.942Z" fill="white"/>
<path d="M147.232 148.167C146.876 148.167 146.52 148.167 146.282 148.107C146.044 148.048 145.807 147.988 145.629 147.988V145.435C145.807 145.494 145.985 145.494 146.223 145.553C146.401 145.553 146.638 145.613 146.876 145.613C147.529 145.613 148.123 145.435 148.539 145.019C148.955 144.603 149.37 144.128 149.667 143.534L149.964 143L148.182 131.062H151.33L151.924 136.585C151.984 136.942 151.984 137.239 151.984 137.654C151.984 138.011 152.043 138.367 152.043 138.783C152.043 139.139 152.043 139.495 152.043 139.733H152.102C152.221 139.495 152.281 139.199 152.399 138.902C152.518 138.605 152.637 138.248 152.756 137.951C152.874 137.595 153.053 137.239 153.231 136.823L156.022 131.062H159.526L152.281 144.722C151.865 145.553 151.39 146.207 150.855 146.741C150.321 147.276 149.727 147.632 149.133 147.929C148.598 148.048 147.945 148.167 147.232 148.167Z" fill="white"/>
</svg>
