<?xml version="1.0" encoding="utf-8"?>
<!-- Generator: Adobe Illustrator 27.6.1, SVG Export Plug-In . SVG Version: 6.00 Build 0)  -->
<svg version="1.1"
	 id="svg3433" xmlns:cc="http://creativecommons.org/ns#" xmlns:rdf="http://www.w3.org/1999/02/22-rdf-syntax-ns#" xmlns:dc="http://purl.org/dc/elements/1.1/" xmlns:svg="http://www.w3.org/2000/svg"
	 xmlns="http://www.w3.org/2000/svg" xmlns:xlink="http://www.w3.org/1999/xlink" x="0px" y="0px" viewBox="0 0 410.4 84.6"
	 style="enable-background:new 0 0 410.4 84.6;" xml:space="preserve">
<style type="text/css">
	.st0{fill-rule:evenodd;clip-rule:evenodd;fill:#0D4BA0;}
	.st1{fill:none;stroke:#000000;stroke-width:2.5;stroke-miterlimit:10;}
</style>
<g>
	<g id="layer1" transform="translate(0,-980.00218)">
		<g id="path354">
			<path class="st0" d="M8.5,1008.4c0,7.2,3.6,12,12.1,16.2l11.8,5.8c3.3,1.6,6.3,3.5,6.3,8.1c0,4.7-3.9,8.1-9.4,8.1
				c-5.5,0-9.1-3.6-9.1-9.2l0-1.9h-0.2h-20l0,0.2c-0.1,1.2-0.1,2.4-0.1,3.5c0,6.5,2.2,11,6.7,14c4.6,3,11.7,4.5,21.6,4.5
				c19.5,0,31.1-8.6,31.1-23.1c0-6.8-3.6-11.9-10.6-15.2l-12.2-5.7c-4.8-2.2-7.3-5.2-7.3-8.7c0-4.1,3.2-6.8,8.1-6.8
				c5,0,7.8,2.8,7.8,7.9l0,1.2h0.2H65l0-0.2c0.1-1.2,0.2-2.3,0.2-3.4c0-13.8-14.1-16.7-25.8-16.7C19.5,987.1,8.5,994.6,8.5,1008.4"
				/>
		</g>
		<g id="path358">
			<path class="st0" d="M80.6,987c-8,0-14.6,1.2-19.6,3.6c4,3.1,6,7.6,6,13c0,1.1-0.1,2.3-0.2,3.5l-0.1,1.9H49.8
				c0.3,6.8,3.9,11.4,12,15.4l11.8,5.8c3.3,1.6,6.3,3.5,6.3,8.1c0,4.7-3.9,8.1-9.4,8.1c-5.5,0-9.1-3.6-9.1-9.2l0.1-1.9h-0.2h-0.2
				c-0.3,7.3-3.4,13.4-9,17.6c-0.6,0.5-1.3,0.9-2,1.4c4.5,2.2,10.9,3.2,19.4,3.2c19.5,0,31.1-8.6,31.1-23.1
				c0-6.8-3.6-11.9-10.6-15.2l-12.2-5.7c-4.8-2.2-7.3-5.2-7.3-8.7c0-4.1,3.2-6.8,8.1-6.8c5,0,7.8,2.8,7.8,7.9l0,1.2h0.2h19.7l0-0.2
				c0.1-1.2,0.2-2.3,0.2-3.4C106.4,989.9,92.4,987.1,80.6,987"/>
		</g>
		<g id="path362">
			<path class="st0" d="M128.8,1055.7l22.9-0.2l10.8-39.2l1.4-5.3c0.6-2.4,0.9-4.6,0.9-7.3c0-10.3-6.8-16.7-17.9-16.7
				c-8.9,0-19,4.2-26.2,13.8c0-0.4,3.2-12.1,3.2-12.1h-22.5l-0.2,0.9l0,0.1c4.8,3.2,7.3,8,7.3,14.1c0,1.1-0.1,2.3-0.2,3.5l-0.2,2.2
				H96.3c-0.7,2.6-1.6,5.9-2.6,9.4c5.9,3.7,9,9,9,15.7c0,7.8-3.2,14.3-9.1,18.8c-1.1,0.8-2.3,1.5-3.5,2.2h16.5l9.6-35.1
				c2.5-9.3,6.7-20,17.2-20c4.2,0,7.5,3,7.5,6.8c0,1.9-0.2,4.9-1.1,8.1l0.1,0l-0.2,0.7l-8.6,31.6l-1.3,4.7l0,0l0,0.1l-0.2,0.8"/>
		</g>
	</g>
	<g>
		<rect x="136" y="41.1" transform="matrix(0.2578 -0.9662 0.9662 0.2578 92.31 204.8088)" width="86.9" height="2.5"/>
	</g>
	<g>
		<path d="M203.3,29.9l5.6-26.3h5.5l-5.6,26.3H203.3z"/>
		<path d="M214.8,29.9L219,9.8h4.1l-0.4,3.7h0.2c0.5-0.8,1.1-1.5,1.7-2.1c0.6-0.6,1.3-1.1,2.1-1.4c0.8-0.4,1.6-0.5,2.5-0.5
			c1.2,0,2.1,0.2,2.9,0.7s1.4,1.1,1.7,2s0.6,1.9,0.6,3.1c0,0.4,0,0.9-0.1,1.5s-0.2,1.1-0.3,1.7l-2.4,11.5h-5.4l2.5-11.7
			c0.1-0.4,0.2-0.8,0.2-1.2s0.1-0.7,0.1-1c0-0.8-0.2-1.3-0.5-1.7c-0.3-0.4-0.8-0.5-1.5-0.5c-0.8,0-1.6,0.4-2.2,1.1
			c-0.7,0.7-1.2,1.6-1.7,2.8c-0.5,1.2-0.9,2.5-1.2,3.9l-1.8,8.3H214.8z"/>
		<path d="M235.6,38.7c-0.6,0-1.1,0-1.7-0.1s-1-0.2-1.4-0.3v-4.4c0.4,0.1,0.7,0.2,1.1,0.3c0.3,0.1,0.7,0.1,1,0.1
			c0.7,0,1.4-0.2,1.9-0.7c0.6-0.5,0.9-1.3,1.2-2.3l3.7-17.4h-2.9l0.5-2.6l3.3-1.5l0.3-1.5c0.3-1.2,0.6-2.3,1.1-3.1
			c0.4-0.8,1-1.5,1.6-2s1.3-0.9,2.1-1.1c0.8-0.2,1.7-0.3,2.7-0.3c0.8,0,1.6,0.1,2.3,0.2s1.3,0.4,1.9,0.6l-1.4,4
			c-0.3-0.2-0.7-0.3-1.1-0.4c-0.4-0.1-0.8-0.2-1.3-0.2c-0.7,0-1.2,0.2-1.7,0.7s-0.7,1.1-0.8,1.9l-0.2,1.1h3.9l-0.9,4.1h-4l-3.9,18.2
			c-0.3,1.2-0.7,2.3-1.2,3.4s-1.3,1.8-2.3,2.4C238.3,38.4,237.1,38.7,235.6,38.7z"/>
		<path d="M259.4,30.2c-1.5,0-2.8-0.3-4-0.9c-1.2-0.6-2.1-1.5-2.7-2.7c-0.7-1.2-1-2.5-1-4.1c0-1.4,0.1-2.8,0.4-4.1
			c0.3-1.3,0.7-2.5,1.3-3.6c0.6-1.1,1.3-2.1,2.1-2.9s1.9-1.4,3-1.9c1.1-0.5,2.4-0.7,3.8-0.7c1.6,0,2.9,0.3,4,0.9
			c1.1,0.6,2,1.5,2.6,2.7c0.6,1.2,0.9,2.6,0.9,4.3c0,1.4-0.1,2.7-0.4,3.9c-0.3,1.3-0.7,2.4-1.2,3.5c-0.6,1.1-1.2,2-2.1,2.8
			c-0.8,0.8-1.8,1.4-3,1.9C262.2,30,260.9,30.2,259.4,30.2z M259.9,25.8c0.6,0,1.1-0.2,1.6-0.5c0.5-0.3,0.9-0.7,1.3-1.3
			s0.7-1.2,1-1.9c0.3-0.7,0.5-1.5,0.6-2.3s0.2-1.7,0.2-2.5c0-0.7-0.1-1.3-0.2-1.8c-0.2-0.5-0.4-1-0.8-1.3s-0.9-0.5-1.5-0.5
			c-0.7,0-1.2,0.2-1.8,0.5c-0.5,0.4-1,0.9-1.4,1.5s-0.7,1.3-1,2.1c-0.3,0.8-0.4,1.5-0.6,2.3c-0.1,0.8-0.2,1.6-0.2,2.3
			c0,1.1,0.2,1.9,0.7,2.5C258.3,25.6,259,25.8,259.9,25.8z"/>
		<path d="M272.3,29.9l4.3-20.1h4.1l-0.4,3.7h0.2c0.5-0.9,1.1-1.6,1.8-2.2c0.6-0.6,1.3-1.1,2.1-1.4c0.7-0.3,1.6-0.5,2.4-0.5
			c0.3,0,0.6,0,0.9,0.1s0.6,0.1,0.8,0.1l-1.2,5.2c-0.2-0.1-0.4-0.1-0.8-0.2c-0.3-0.1-0.7-0.1-1-0.1c-0.7,0-1.3,0.1-1.9,0.4
			s-1.2,0.7-1.7,1.2c-0.5,0.5-1,1.2-1.4,2c-0.4,0.8-0.7,1.7-0.9,2.8l-1.9,9H272.3z"/>
		<path d="M287.8,29.9l4.3-20.1h4.1l-0.4,3.7h0.2c0.5-0.8,1.1-1.5,1.7-2.1c0.6-0.6,1.3-1.1,2.1-1.4c0.8-0.4,1.6-0.5,2.5-0.5
			c1.4,0,2.4,0.4,3.2,1.1c0.8,0.7,1.3,1.7,1.5,3h0.1c0.5-0.8,1.1-1.5,1.7-2.1s1.3-1.1,2.1-1.4c0.8-0.4,1.6-0.5,2.6-0.5
			c1.7,0,2.9,0.5,3.8,1.6c0.8,1,1.2,2.5,1.2,4.2c0,0.4,0,0.9-0.1,1.5c-0.1,0.6-0.2,1.1-0.3,1.7l-2.4,11.5h-5.4l2.5-11.7
			c0.1-0.4,0.2-0.8,0.2-1.2s0.1-0.7,0.1-1c0-0.8-0.1-1.3-0.4-1.7c-0.3-0.4-0.7-0.5-1.3-0.5c-0.6,0-1.2,0.2-1.7,0.6
			c-0.5,0.4-1,0.9-1.4,1.7s-0.8,1.5-1.1,2.5c-0.3,0.9-0.6,1.9-0.8,3l-1.7,8.4h-5.4l2.5-11.7c0.1-0.4,0.2-0.8,0.2-1.2s0.1-0.7,0.1-1
			c0-0.8-0.1-1.3-0.4-1.7s-0.7-0.5-1.3-0.5c-0.6,0-1.2,0.2-1.7,0.6c-0.5,0.4-1,1-1.4,1.7s-0.8,1.5-1.1,2.5c-0.3,0.9-0.6,1.9-0.8,3
			l-1.8,8.3H287.8z"/>
		<path d="M327.8,30.2c-1,0-1.9-0.2-2.8-0.7s-1.6-1.3-2.1-2.3c-0.5-1.1-0.8-2.5-0.8-4.2c0-1.3,0.1-2.6,0.4-3.9
			c0.3-1.3,0.7-2.5,1.2-3.7s1.2-2.2,1.9-3.1c0.8-0.9,1.6-1.6,2.6-2.1c1-0.5,2-0.8,3.1-0.8c0.9,0,1.6,0.1,2.2,0.4
			c0.6,0.2,1.2,0.6,1.6,1c0.5,0.4,0.8,1,1.1,1.5h0.1l1-2.6h4.2l-4.3,20.1h-4l0.3-2.6h-0.1c-0.5,0.6-1,1.1-1.6,1.5
			c-0.6,0.4-1.2,0.8-1.9,1C329.4,30.1,328.7,30.2,327.8,30.2z M329.9,25.9c0.7,0,1.4-0.3,2.1-0.9c0.6-0.6,1.2-1.3,1.6-2.3
			c0.5-0.9,0.8-1.9,1-3c0.1-0.5,0.2-1,0.2-1.4s0.1-1,0.1-1.6c0-0.9-0.2-1.6-0.7-2.1c-0.5-0.6-1.1-0.8-1.8-0.8c-0.5,0-1,0.2-1.5,0.5
			c-0.5,0.3-0.9,0.8-1.3,1.4s-0.7,1.3-1,2c-0.3,0.8-0.5,1.6-0.7,2.4c-0.2,0.9-0.2,1.7-0.2,2.6c0,1,0.2,1.8,0.6,2.4
			C328.6,25.6,329.2,25.9,329.9,25.9z"/>
		<path d="M349.8,30.2c-1.6,0-2.9-0.3-3.8-1c-0.9-0.7-1.4-1.9-1.4-3.6c0-0.3,0-0.6,0.1-0.9s0.1-0.7,0.2-1.1l2.1-9.7h-2.7l0.5-2.6
			l3.5-1.5l2.4-4.2h3.5l-0.9,4.3h5.1l-0.9,4.1h-5.1l-2.1,9.7c0,0.2-0.1,0.4-0.1,0.5c0,0.2,0,0.3,0,0.4c0,0.5,0.1,0.8,0.4,1
			c0.3,0.2,0.7,0.3,1.2,0.3c0.5,0,1-0.1,1.4-0.2c0.4-0.1,1-0.3,1.5-0.5v4c-0.6,0.3-1.3,0.5-2.1,0.7S350.8,30.2,349.8,30.2z"/>
		<path d="M358.2,29.9l4.3-20.1h5.4l-4.3,20.1H358.2z M366,7.3c-0.8,0-1.4-0.2-1.9-0.5c-0.5-0.3-0.8-0.9-0.8-1.7
			c0-0.7,0.1-1.3,0.4-1.7s0.6-0.8,1.1-1.1c0.5-0.2,1.1-0.4,1.8-0.4c0.7,0,1.3,0.2,1.9,0.5c0.5,0.3,0.8,0.9,0.8,1.7
			c0,1-0.3,1.7-0.8,2.3C367.9,7,367.1,7.3,366,7.3z"/>
		<path d="M377.8,30.2c-1.5,0-2.8-0.3-4-0.9c-1.2-0.6-2.1-1.5-2.7-2.7c-0.7-1.2-1-2.5-1-4.1c0-1.4,0.1-2.8,0.4-4.1
			c0.3-1.3,0.7-2.5,1.3-3.6c0.6-1.1,1.3-2.1,2.1-2.9s1.9-1.4,3-1.9c1.1-0.5,2.4-0.7,3.8-0.7c1.6,0,2.9,0.3,4,0.9
			c1.1,0.6,2,1.5,2.6,2.7c0.6,1.2,0.9,2.6,0.9,4.3c0,1.4-0.1,2.7-0.4,3.9c-0.3,1.3-0.7,2.4-1.2,3.5c-0.6,1.1-1.2,2-2.1,2.8
			c-0.8,0.8-1.8,1.4-3,1.9C380.5,30,379.2,30.2,377.8,30.2z M378.2,25.8c0.6,0,1.1-0.2,1.6-0.5c0.5-0.3,0.9-0.7,1.3-1.3
			s0.7-1.2,1-1.9c0.3-0.7,0.5-1.5,0.6-2.3s0.2-1.7,0.2-2.5c0-0.7-0.1-1.3-0.2-1.8c-0.2-0.5-0.4-1-0.8-1.3s-0.9-0.5-1.5-0.5
			c-0.7,0-1.2,0.2-1.8,0.5c-0.5,0.4-1,0.9-1.4,1.5s-0.7,1.3-1,2.1c-0.3,0.8-0.4,1.5-0.6,2.3c-0.1,0.8-0.2,1.6-0.2,2.3
			c0,1.1,0.2,1.9,0.7,2.5C376.6,25.6,377.3,25.8,378.2,25.8z"/>
		<path d="M390.7,29.9l4.3-20.1h4.1l-0.4,3.7h0.2c0.5-0.8,1.1-1.5,1.7-2.1c0.6-0.6,1.3-1.1,2.1-1.4c0.8-0.4,1.6-0.5,2.5-0.5
			c1.2,0,2.1,0.2,2.9,0.7s1.4,1.1,1.7,2s0.6,1.9,0.6,3.1c0,0.4,0,0.9-0.1,1.5s-0.2,1.1-0.3,1.7l-2.4,11.5h-5.4l2.5-11.7
			c0.1-0.4,0.2-0.8,0.2-1.2s0.1-0.7,0.1-1c0-0.8-0.2-1.3-0.5-1.7c-0.3-0.4-0.8-0.5-1.5-0.5c-0.8,0-1.6,0.4-2.2,1.1
			c-0.7,0.7-1.2,1.6-1.7,2.8c-0.5,1.2-0.9,2.5-1.2,3.9l-1.8,8.3H390.7z"/>
		<path d="M207.1,74.1l4.6-21.7h-6.3l1-4.6h18.2l-1,4.6h-6.3l-4.6,21.7H207.1z"/>
		<path d="M231.5,74.5c-1.6,0-3-0.3-4.1-0.9c-1.2-0.6-2.1-1.4-2.8-2.6s-1-2.6-1-4.3c0-1.7,0.2-3.3,0.7-4.9c0.5-1.6,1.2-3,2.1-4.2
			c1-1.2,2.1-2.2,3.5-2.9c1.4-0.7,3-1.1,4.8-1.1c2.3,0,3.9,0.5,5.1,1.5s1.7,2.3,1.7,3.9c0,1.1-0.2,2-0.7,2.9s-1.2,1.6-2.1,2.2
			c-1,0.6-2.2,1.1-3.6,1.4c-1.5,0.3-3.2,0.5-5.1,0.5H229c0,0.1,0,0.3,0,0.4c0,0.1,0,0.2,0,0.4c0,1.1,0.3,1.9,0.9,2.6
			c0.6,0.6,1.5,1,2.6,1c1.1,0,2-0.1,2.9-0.4c0.9-0.2,1.9-0.6,3.1-1.2v4.1c-1.1,0.5-2.1,0.9-3.2,1.2
			C234.2,74.3,232.9,74.5,231.5,74.5z M229.6,62.5h0.8c1.4,0,2.5-0.1,3.4-0.4c0.9-0.3,1.5-0.7,1.9-1.2c0.4-0.5,0.6-1,0.6-1.6
			c0-0.6-0.2-1-0.5-1.3c-0.3-0.3-0.8-0.4-1.4-0.4c-0.7,0-1.3,0.2-2,0.6c-0.7,0.4-1.2,1-1.7,1.7C230.2,60.6,229.8,61.5,229.6,62.5z"
			/>
		<path d="M251.5,74.5c-1.4,0-2.7-0.2-3.8-0.7s-2-1.3-2.7-2.4c-0.7-1.1-1-2.5-1-4.3c0-1.5,0.1-2.8,0.4-4.2c0.3-1.3,0.7-2.6,1.3-3.7
			c0.6-1.1,1.3-2.1,2.2-2.9c0.9-0.8,1.9-1.5,3-2s2.4-0.7,3.7-0.7c1.2,0,2.3,0.1,3.2,0.3c1,0.2,1.8,0.5,2.7,1l-1.7,4.1
			c-0.6-0.3-1.3-0.5-1.9-0.7c-0.6-0.2-1.3-0.3-2.1-0.3c-0.9,0-1.6,0.2-2.3,0.7c-0.7,0.5-1.2,1.2-1.7,2c-0.5,0.8-0.8,1.8-1.1,2.8
			s-0.4,2.1-0.4,3.1c0,0.8,0.1,1.4,0.4,1.9c0.2,0.5,0.6,0.9,1.1,1.2s1,0.4,1.7,0.4c0.9,0,1.8-0.1,2.5-0.4c0.8-0.3,1.6-0.6,2.4-1.1
			V73c-0.8,0.4-1.7,0.8-2.7,1C253.9,74.3,252.8,74.5,251.5,74.5z"/>
		<path d="M260.9,74.1l5.9-28h5.4l-1,4.9c-0.1,0.6-0.3,1.2-0.4,1.9c-0.2,0.7-0.4,1.4-0.6,2.1c-0.2,0.7-0.4,1.3-0.6,1.8h0.1
			c0.5-0.6,1-1.1,1.6-1.6c0.6-0.5,1.2-0.8,1.9-1.1s1.4-0.4,2.2-0.4c1.2,0,2.1,0.2,2.9,0.7s1.4,1.1,1.7,2s0.6,1.9,0.6,3.1
			c0,0.4,0,0.9-0.1,1.5s-0.2,1.1-0.3,1.7l-2.4,11.5h-5.4l2.5-11.7c0.1-0.4,0.2-0.8,0.2-1.2s0.1-0.7,0.1-1c0-0.8-0.2-1.3-0.5-1.7
			c-0.3-0.4-0.8-0.5-1.5-0.5c-0.8,0-1.6,0.4-2.2,1.1c-0.7,0.7-1.2,1.6-1.7,2.8c-0.5,1.2-0.9,2.5-1.2,3.9l-1.8,8.3H260.9z"/>
		<path d="M283.1,74.1l4.3-20.1h4.1l-0.4,3.7h0.2c0.5-0.8,1.1-1.5,1.7-2.1c0.6-0.6,1.3-1.1,2.1-1.4c0.8-0.4,1.6-0.5,2.5-0.5
			c1.2,0,2.1,0.2,2.9,0.7s1.4,1.1,1.7,2s0.6,1.9,0.6,3.1c0,0.4,0,0.9-0.1,1.5s-0.2,1.1-0.3,1.7L300,74.1h-5.4l2.5-11.7
			c0.1-0.4,0.2-0.8,0.2-1.2s0.1-0.7,0.1-1c0-0.8-0.2-1.3-0.5-1.7c-0.3-0.4-0.8-0.5-1.5-0.5c-0.8,0-1.6,0.4-2.2,1.1
			c-0.7,0.7-1.2,1.6-1.7,2.8c-0.5,1.2-0.9,2.5-1.2,3.9l-1.8,8.3H283.1z"/>
		<path d="M314,74.5c-1.5,0-2.8-0.3-4-0.9c-1.2-0.6-2.1-1.5-2.7-2.7c-0.7-1.2-1-2.5-1-4.1c0-1.4,0.1-2.8,0.4-4.1
			c0.3-1.3,0.7-2.5,1.3-3.6c0.6-1.1,1.3-2.1,2.1-2.9s1.9-1.4,3-1.9c1.1-0.5,2.4-0.7,3.8-0.7c1.6,0,2.9,0.3,4,0.9
			c1.1,0.6,2,1.5,2.6,2.7c0.6,1.2,0.9,2.6,0.9,4.3c0,1.4-0.1,2.7-0.4,3.9c-0.3,1.3-0.7,2.4-1.2,3.5c-0.6,1.1-1.2,2-2.1,2.8
			c-0.8,0.8-1.8,1.4-3,1.9C316.8,74.2,315.5,74.5,314,74.5z M314.5,70c0.6,0,1.1-0.2,1.6-0.5c0.5-0.3,0.9-0.7,1.3-1.3s0.7-1.2,1-1.9
			c0.3-0.7,0.5-1.5,0.6-2.3s0.2-1.7,0.2-2.5c0-0.7-0.1-1.3-0.2-1.8c-0.2-0.5-0.4-1-0.8-1.3s-0.9-0.5-1.5-0.5c-0.7,0-1.2,0.2-1.8,0.5
			c-0.5,0.4-1,0.9-1.4,1.5s-0.7,1.3-1,2.1c-0.3,0.8-0.4,1.5-0.6,2.3c-0.1,0.8-0.2,1.6-0.2,2.3c0,1.1,0.2,1.9,0.7,2.5
			C312.9,69.8,313.6,70,314.5,70z"/>
		<path d="M326.9,74.1l5.9-28h5.4l-5.9,28H326.9z"/>
		<path d="M346.5,74.5c-1.5,0-2.8-0.3-4-0.9c-1.2-0.6-2.1-1.5-2.7-2.7c-0.7-1.2-1-2.5-1-4.1c0-1.4,0.1-2.8,0.4-4.1
			c0.3-1.3,0.7-2.5,1.3-3.6c0.6-1.1,1.3-2.1,2.1-2.9s1.9-1.4,3-1.9c1.1-0.5,2.4-0.7,3.8-0.7c1.6,0,2.9,0.3,4,0.9
			c1.1,0.6,2,1.5,2.6,2.7c0.6,1.2,0.9,2.6,0.9,4.3c0,1.4-0.1,2.7-0.4,3.9c-0.3,1.3-0.7,2.4-1.2,3.5c-0.6,1.1-1.2,2-2.1,2.8
			c-0.8,0.8-1.8,1.4-3,1.9C349.3,74.2,348,74.5,346.5,74.5z M347,70c0.6,0,1.1-0.2,1.6-0.5c0.5-0.3,0.9-0.7,1.3-1.3s0.7-1.2,1-1.9
			c0.3-0.7,0.5-1.5,0.6-2.3s0.2-1.7,0.2-2.5c0-0.7-0.1-1.3-0.2-1.8c-0.2-0.5-0.4-1-0.8-1.3s-0.9-0.5-1.5-0.5c-0.7,0-1.2,0.2-1.8,0.5
			c-0.5,0.4-1,0.9-1.4,1.5s-0.7,1.3-1,2.1c-0.3,0.8-0.4,1.5-0.6,2.3c-0.1,0.8-0.2,1.6-0.2,2.3c0,1.1,0.2,1.9,0.7,2.5
			C345.4,69.8,346,70,347,70z"/>
		<path d="M364.6,82.9c-2.5,0-4.4-0.5-5.8-1.4c-1.4-0.9-2.1-2.1-2.1-3.7c0-1.2,0.4-2.3,1.2-3.2c0.8-0.9,2.1-1.6,3.9-2.2
			c-0.4-0.3-0.8-0.6-1-1c-0.2-0.4-0.3-0.9-0.3-1.4c0-0.9,0.3-1.6,0.8-2.2s1.4-1.2,2.6-1.8c-0.8-0.6-1.4-1.3-1.7-2
			c-0.4-0.8-0.6-1.7-0.6-2.8c0-1.2,0.2-2.2,0.5-3.1s0.9-1.7,1.6-2.4c0.7-0.7,1.6-1.3,2.7-1.7c1.1-0.4,2.3-0.6,3.6-0.6
			c0.5,0,1,0,1.5,0.1c0.5,0.1,1,0.2,1.5,0.3h7.1l-0.6,3l-3.1,0.7c0.1,0.3,0.2,0.6,0.2,1s0.1,0.7,0.1,1.1c0,1.1-0.2,2.1-0.5,3.1
			c-0.4,0.9-0.9,1.7-1.5,2.4c-0.7,0.7-1.6,1.2-2.6,1.6c-1,0.4-2.2,0.6-3.5,0.6c-0.3,0-0.7,0-1,0c-0.3,0-0.6-0.1-0.8-0.1
			c-0.5,0.2-0.9,0.4-1.1,0.6c-0.3,0.2-0.4,0.5-0.4,0.8c0,0.3,0.1,0.5,0.3,0.7c0.2,0.2,0.4,0.3,0.7,0.4c0.3,0.1,0.7,0.2,1.2,0.2
			l2.5,0.3c1.3,0.2,2.4,0.4,3.2,0.8s1.4,0.9,1.8,1.6c0.4,0.7,0.6,1.5,0.6,2.4c0,1.3-0.3,2.5-0.8,3.4s-1.2,1.8-2.2,2.5
			c-0.9,0.6-2,1.1-3.3,1.4C367.8,82.8,366.3,82.9,364.6,82.9z M364.9,79.3c1,0,1.9-0.1,2.6-0.3c0.7-0.2,1.3-0.4,1.8-0.7
			c0.4-0.3,0.7-0.6,0.8-0.9c0.2-0.3,0.3-0.7,0.3-1.2c0-0.2,0-0.4-0.1-0.5c-0.1-0.1-0.1-0.3-0.2-0.4c-0.2-0.2-0.5-0.4-0.9-0.5
			c-0.4-0.1-0.9-0.2-1.4-0.3l-2.4-0.3c-0.8,0.1-1.5,0.3-2.1,0.6c-0.6,0.3-1,0.6-1.3,1c-0.3,0.4-0.4,0.9-0.4,1.4
			c0,0.7,0.3,1.2,0.9,1.6C362.9,79.1,363.8,79.3,364.9,79.3z M368.5,64c0.6,0,1.1-0.2,1.6-0.6c0.5-0.4,0.8-1,1.1-1.7
			c0.3-0.7,0.4-1.6,0.4-2.5c0-0.4,0-0.7-0.1-1c-0.1-0.3-0.2-0.5-0.4-0.7c-0.1-0.2-0.3-0.3-0.5-0.3c-0.2-0.1-0.5-0.1-0.7-0.1
			c-0.5,0-0.9,0.1-1.3,0.4s-0.7,0.6-1,1c-0.3,0.4-0.5,0.9-0.6,1.5c-0.2,0.6-0.2,1.2-0.2,1.9c0,0.2,0,0.4,0,0.6
			c0,0.2,0.1,0.3,0.1,0.5C367.1,63.7,367.7,64,368.5,64z"/>
		<path d="M378.8,82.9c-0.6,0-1.2,0-1.6-0.1c-0.4-0.1-0.8-0.2-1.1-0.2v-4.3c0.3,0.1,0.6,0.1,1,0.2c0.3,0,0.7,0.1,1.1,0.1
			c1.1,0,2.1-0.3,2.8-1c0.7-0.7,1.4-1.5,1.9-2.5l0.5-0.9l-3-20.1h5.3l1,9.3c0.1,0.6,0.1,1.1,0.1,1.8c0,0.6,0.1,1.2,0.1,1.9
			c0,0.6,0,1.2,0,1.6h0.1c0.2-0.4,0.3-0.9,0.5-1.4c0.2-0.5,0.4-1.1,0.6-1.6c0.2-0.6,0.5-1.2,0.8-1.9l4.7-9.7h5.9l-12.2,23
			c-0.7,1.4-1.5,2.5-2.4,3.4c-0.9,0.9-1.9,1.5-2.9,2C381.1,82.7,380,82.9,378.8,82.9z"/>
	</g>
</g>
</svg>
