<svg width="200" height="200" viewBox="0 0 200 200" fill="none" xmlns="http://www.w3.org/2000/svg">
<path fill-rule="evenodd" clip-rule="evenodd" d="M26.6 86.4C26.6 93.6 30.2 98.4 38.7 102.6L50.5 108.4C53.8 110 56.8 111.9 56.8 116.5C56.8 121.2 52.9 124.6 47.4 124.6C41.9 124.6 38.3 121 38.3 115.4V113.5H38.1H18.1V113.7C18 114.9 18 116.1 18 117.2C18 123.7 20.2 128.2 24.7 131.2C29.3 134.2 36.4 135.7 46.3 135.7C65.8 135.7 77.4 127.1 77.4 112.6C77.4 105.8 73.8 100.7 66.8 97.4L54.6 91.7C49.8 89.5 47.3 86.5 47.3 83C47.3 78.9 50.5 76.2 55.4 76.2C60.4 76.2 63.2 79 63.2 84.1V85.3H63.4H83.1V85.1C83.2 83.9 83.3 82.8 83.3 81.7C83.3 67.9 69.2 65 57.5 65C37.6 65.1 26.6 72.6 26.6 86.4Z" fill="white"/>
<path fill-rule="evenodd" clip-rule="evenodd" d="M98.7 65C90.7 65 84.1 66.2 79.1 68.6C83.1 71.7 85.1 76.2 85.1 81.6C85.1 82.7 85 83.9 84.9 85.1L84.8 87H67.9C68.2 93.8 71.8 98.4 79.9 102.4L91.7 108.2C95 109.8 98 111.7 98 116.3C98 121 94.1 124.4 88.6 124.4C83.1 124.4 79.5 120.8 79.5 115.2L79.6 113.3H79.4H79.2C78.9 120.6 75.8 126.7 70.2 130.9C69.6 131.4 68.9 131.8 68.2 132.3C72.7 134.5 79.1 135.5 87.6 135.5C107.1 135.5 118.7 126.9 118.7 112.4C118.7 105.6 115.1 100.5 108.1 97.2L95.9 91.5C91.1 89.3 88.6 86.3 88.6 82.8C88.6 78.7 91.8 76 96.7 76C101.7 76 104.5 78.8 104.5 83.9V85.1H104.7H124.4V84.9C124.5 83.7 124.6 82.6 124.6 81.5C124.5 67.9 110.5 65.1 98.7 65Z" fill="white"/>
<path fill-rule="evenodd" clip-rule="evenodd" d="M146.9 133.7L169.8 133.5L180.6 94.3L182 89C182.6 86.6 182.9 84.4 182.9 81.7C182.9 71.4 176.1 65 165 65C156.1 65 146 69.2 138.8 78.8C138.8 78.4 142 66.7 142 66.7H119.5L119.3 67.6V67.7C124.1 70.9 126.6 75.7 126.6 81.8C126.6 82.9 126.5 84.1 126.4 85.3L126.2 87.5H114.4C113.7 90.1 112.8 93.4 111.8 96.9C117.7 100.6 120.8 105.9 120.8 112.6C120.8 120.4 117.6 126.9 111.7 131.4C110.6 132.2 109.4 132.9 108.2 133.6H124.7L134.3 98.5C136.8 89.2 141 78.5 151.5 78.5C155.7 78.5 159 81.5 159 85.3C159 87.2 158.8 90.2 157.9 93.4H158L157.8 94.1L149.2 125.7L147.9 130.4V130.5L147.7 131.3" fill="white"/>
</svg>
